<?xml version="1.0" encoding="UTF-8" standalone="no"?>
<svg
   width="594.86981"
   zoomAndPan="magnify"
   viewBox="0 0 446.15236 156.44531"
   height="208.59375"
   preserveAspectRatio="xMidYMid meet"
   version="1.0"
   id="svg11"
   sodipodi:docname="1b04aac37c01ff8deac82aa00e042892.svg"
   xmlns:inkscape="http://www.inkscape.org/namespaces/inkscape"
   xmlns:sodipodi="http://sodipodi.sourceforge.net/DTD/sodipodi-0.dtd"
   xmlns="http://www.w3.org/2000/svg"
   xmlns:svg="http://www.w3.org/2000/svg">
  <sodipodi:namedview
     id="namedview13"
     pagecolor="#ffffff"
     bordercolor="#666666"
     borderopacity="1.0"
     inkscape:pageshadow="2"
     inkscape:pageopacity="0.0"
     inkscape:pagecheckerboard="0" />
  <defs
     id="defs5">
    <clipPath
       id="be88fb2f57">
      <path
         d="m 181.92187,326.75781 h 446.25 v 156.75 h -446.25 z m 0,0"
         clip-rule="nonzero"
         id="path2" />
    </clipPath>
  </defs>
  <g
     clip-path="url(#be88fb2f57)"
     id="g9"
     transform="translate(-181.92578,-326.77344)">
    <path
       fill="#000000"
       d="m 232.68359,375.40625 h 42.28125 l 14.80469,23.48828 h 162.48438 l 11.14062,-17.67969 h -84.81641 l -14.80468,-23.48828 h -39.15235 c -1.21484,2.9336 -4.10156,5 -7.47656,5 -4.46484,0 -8.08594,-3.62109 -8.08594,-8.08984 0,-4.46485 3.6211,-8.08594 8.08594,-8.08594 3.48438,0 6.45313,2.20313 7.59375,5.29297 h 42.28125 l 14.80469,23.49219 h 85.27734 l 12.5586,-19.92969 h 40.76953 c 1.19531,-2.97266 4.10547,-5.07031 7.50781,-5.07031 4.46484,0 8.08594,3.62109 8.08594,8.08593 0,4.46875 -3.6211,8.08985 -8.08594,8.08985 -3.45703,0 -6.40625,-2.17188 -7.56641,-5.22266 h -37.46484 l -1.29688,2.0586 -7.55468,11.98437 h 70.2539 l 27.40625,-43.48828 h 40.76953 c 1.19532,-2.97266 4.10547,-5.07031 7.50391,-5.07031 4.46875,0 8.08984,3.62109 8.08984,8.08593 0,4.46875 -3.62109,8.08985 -8.08984,8.08985 -3.45703,0 -6.40625,-2.17188 -7.5625,-5.22266 h -37.46484 l -1.29688,2.0586 -26.10937,41.42968 H 470.34766 L 455.5,404.77734 H 286.52344 l -14.80078,-23.48828 h -39.15235 c -1.21484,2.9336 -4.10547,4.9961 -7.47656,4.9961 -4.46875,0 -8.08984,-3.61719 -8.08984,-8.08594 0,-4.46485 3.62109,-8.08594 8.08984,-8.08594 3.48437,0 6.45312,2.20313 7.58984,5.29297 z m -35.07812,82.74219 h 42.28125 l 14.80469,-23.49219 h 108.76953 l -5.1875,8.23047 h -39.15235 c -1.21093,-2.9336 -4.10156,-5 -7.47656,-5 -4.46484,0 -8.08594,3.62109 -8.08594,8.08984 0,4.46485 3.6211,8.08594 8.08594,8.08594 3.48438,0 6.45703,-2.20313 7.59375,-5.29297 h 42.28125 l 8.89453,-14.11328 h 46.76172 l 27.40625,43.48828 h 40.76953 c 1.19531,2.97266 4.10547,5.07422 7.50781,5.07422 4.46485,0 8.08594,-3.62109 8.08594,-8.08984 0,-4.46485 -3.62109,-8.08594 -8.08594,-8.08594 -3.45703,0 -6.41015,2.16797 -7.5664,5.21875 h -37.46485 l -1.29687,-2.0586 -26.10938,-41.42968 h -46.30078 l 2.20313,-3.4961 h 162.48437 l 27.40625,43.48828 h 40.76953 c 1.19532,2.97266 4.10547,5.07422 7.50391,5.07422 4.46875,0 8.08984,-3.62109 8.08984,-8.08593 0,-4.46875 -3.62109,-8.08985 -8.08984,-8.08985 -3.45703,0 -6.40625,2.17188 -7.5625,5.22266 h -37.46484 l -1.30078,-2.0586 -26.10938,-41.42968 H 373.07422 l -5.91016,9.375 H 251.44531 l -14.80469,23.49218 h -39.15234 c -1.21484,-2.93359 -4.10156,-5 -7.47656,-5 -4.46485,0 -8.08594,3.6211 -8.08594,8.08594 0,4.46875 3.62109,8.08985 8.08594,8.08985 3.48437,0 6.45312,-2.20313 7.59375,-5.29297 z m 0,0"
       fill-opacity="1"
       fill-rule="evenodd"
       id="path7" />
  </g>
</svg>
