<?xml version="1.0" encoding="UTF-8" standalone="no"?>
<svg
   width="729.95312"
   zoomAndPan="magnify"
   viewBox="0 0 547.46484 567"
   height="756"
   preserveAspectRatio="xMidYMid meet"
   version="1.0"
   id="svg259"
   sodipodi:docname="6c1c9da17828e3b740ba377f1a951b0f.svg"
   xmlns:inkscape="http://www.inkscape.org/namespaces/inkscape"
   xmlns:sodipodi="http://sodipodi.sourceforge.net/DTD/sodipodi-0.dtd"
   xmlns="http://www.w3.org/2000/svg"
   xmlns:svg="http://www.w3.org/2000/svg">
  <sodipodi:namedview
     id="namedview261"
     pagecolor="#ffffff"
     bordercolor="#666666"
     borderopacity="1.0"
     inkscape:pageshadow="2"
     inkscape:pageopacity="0.0"
     inkscape:pagecheckerboard="0" />
  <defs
     id="defs11">
    <clipPath
       id="a361514d84">
      <path
         d="M 424,121.5 H 619 V 204 H 424 Z m 0,0"
         clip-rule="nonzero"
         id="path2" />
    </clipPath>
    <clipPath
       id="003839d3d0">
      <path
         d="M 231,121.5 H 425 V 204 H 231 Z m 0,0"
         clip-rule="nonzero"
         id="path5" />
    </clipPath>
    <clipPath
       id="afe1cc6b76">
      <path
         d="m 424,539 h 2 v 149.5 h -2 z m 0,0"
         clip-rule="nonzero"
         id="path8" />
    </clipPath>
  </defs>
  <path
     fill="#000000"
     d="m 484.80468,465.14844 c -51.23047,51.23437 -119.17578,79.36718 -191.53906,79.36718 v 2.70313 c 73.10156,0 141.78125,-28.37891 193.38281,-80.10547 z m 0,0"
     fill-opacity="1"
     fill-rule="nonzero"
     id="path13" />
  <path
     fill="#000000"
     d="m 101.85156,465.14844 -1.968745,1.96484 c 51.601555,51.60156 120.402335,80.10547 193.382805,80.10547 v -2.70313 c -72.24219,0 -140.18359,-28.13281 -191.41406,-79.36718 z m 0,0"
     fill-opacity="1"
     fill-rule="nonzero"
     id="path15" />
  <path
     fill="#000000"
     d="m 22.605465,273.60937 h -2.70312 c 0,73.10157 28.3789,141.78125 80.105465,193.38282 l 1.96484,-1.96485 C 50.738285,414.03906 22.605465,345.97266 22.605465,273.60937 Z m 0,0"
     fill-opacity="1"
     fill-rule="nonzero"
     id="path17" />
  <g
     clip-path="url(#a361514d84)"
     id="g21"
     transform="translate(-131.26563,-121.5)">
    <path
       fill="#000000"
       d="m 616.07031,203.69531 1.96485,-1.96875 C 566.43359,150.00391 497.63281,121.5 424.65625,121.5 v 2.70313 c 72.23828,0.12109 140.30469,28.3789 191.41406,79.49218 z m 0,0"
       fill-opacity="1"
       fill-rule="nonzero"
       id="path19" />
  </g>
  <g
     clip-path="url(#003839d3d0)"
     id="g25"
     transform="translate(-131.26563,-121.5)">
    <path
       fill="#000000"
       d="m 233.11719,203.69531 c 51.23047,-51.23437 119.17187,-79.37109 191.53906,-79.37109 v -2.70313 c -73.10547,0 -141.78125,28.38282 -193.38281,80.10547 z m 0,0"
       fill-opacity="1"
       fill-rule="nonzero"
       id="path23" />
  </g>
  <path
     fill="#000000"
     d="m 101.85156,82.19531 -1.968745,-1.96875 c -51.60157,51.60156 -80.10547,120.28125 -80.10547,193.26172 h 2.70312 c 0.125,-72.24219 28.25782,-140.18359 79.371095,-191.29297 z m 0,0"
     fill-opacity="1"
     fill-rule="nonzero"
     id="path27" />
  <path
     fill="#000000"
     d="m 293.39062,524.98047 v 2.70312 c 67.81642,0 131.58204,-26.41406 179.62109,-74.45312 l -1.96875,-1.96485 c -47.42187,47.54688 -110.57421,73.71485 -177.65234,73.71485 z m 0,0"
     fill-opacity="1"
     fill-rule="nonzero"
     id="path29" />
  <path
     fill="#000000"
     d="m 471.04296,95.95312 c 47.42579,47.42579 73.59375,110.57422 73.59375,177.78125 h 2.70313 c 0,-67.82031 -26.41405,-131.58593 -74.45313,-179.625 z m 0,0"
     fill-opacity="1"
     fill-rule="nonzero"
     id="path31" />
  <path
     fill="#000000"
     d="m 293.39062,19.65625 v 2.70312 c 67.07813,0 130.23047,26.17188 177.77734,73.59375 l 1.96485,-1.96484 C 424.97266,46.07422 361.20704,19.65625 293.39062,19.65625 Z m 0,0"
     fill-opacity="1"
     fill-rule="nonzero"
     id="path33" />
  <path
     fill="#000000"
     d="m 471.04296,451.38672 1.96875,1.96875 c 48.03908,-48.03906 74.45313,-111.80469 74.45313,-179.6211 h -2.70313 c -0.125,67.07813 -26.17187,130.23047 -73.71875,177.65235 z m 0,0"
     fill-opacity="1"
     fill-rule="nonzero"
     id="path35" />
  <path
     fill="#000000"
     d="m 67.082035,320.66406 c -0.125,-0.73437 -0.86329,-1.22656 -1.59766,-1.10547 -0.73828,0.125 -1.23047,0.85938 -1.10547,1.59766 0.24609,1.35156 0.48828,2.70312 0.85938,4.05469 0.12109,0.61328 0.73828,1.10547 1.35156,1.10547 0.12109,0 0.12109,0 0.24609,0 0.73438,-0.1211 1.22656,-0.85938 0.98047,-1.59766 -0.12109,-1.47266 -0.36719,-2.82422 -0.73437,-4.05469 z m 0,0"
     fill-opacity="1"
     fill-rule="nonzero"
     id="path37" />
  <path
     fill="#000000"
     d="m 72.117185,340.44531 c -0.12109,-0.73828 -0.98047,-1.10547 -1.71875,-0.85937 -0.73828,0.12109 -1.10547,0.98437 -0.85937,1.71875 0.36718,1.35156 0.85937,2.70312 1.22656,3.93359 0.125,0.49219 0.73828,0.85938 1.23047,0.85938 0.12109,0 0.24609,0 0.48828,-0.125 0.73828,-0.24219 1.10937,-0.98047 0.86328,-1.71875 -0.37109,-1.22657 -0.73828,-2.57813 -1.23047,-3.8086 z m 0,0"
     fill-opacity="1"
     fill-rule="nonzero"
     id="path39" />
  <path
     fill="#000000"
     d="m 64.007815,300.39453 c -0.1211,-0.73828 -0.85938,-1.23047 -1.59766,-1.23047 -0.73437,0.125 -1.22656,0.73828 -1.22656,1.59766 0.12109,1.35156 0.36719,2.70312 0.49219,4.05469 0.12109,0.73828 0.61328,1.22656 1.35156,1.22656 0.12109,0 0.12109,0 0.12109,0 0.73828,-0.1211 1.23047,-0.85938 1.23047,-1.59375 -0.125,-1.35156 -0.37109,-2.70313 -0.37109,-4.05469 z m 0,0"
     fill-opacity="1"
     fill-rule="nonzero"
     id="path41" />
  <path
     fill="#000000"
     d="m 136.37499,443.03516 c -0.49218,-0.49219 -1.47656,-0.49219 -1.96875,0.12109 -0.48828,0.61328 -0.48828,1.47656 0.125,1.96484 0.98047,0.86328 1.96485,1.84375 3.07032,2.82813 0.24609,0.24609 0.49218,0.36719 0.85937,0.36719 0.3711,0 0.73828,-0.1211 0.98438,-0.49219 0.49218,-0.48828 0.49218,-1.47266 -0.125,-1.96485 -0.98047,-0.98437 -1.96485,-1.84375 -2.94532,-2.82421 z m 0,0"
     fill-opacity="1"
     fill-rule="nonzero"
     id="path43" />
  <path
     fill="#000000"
     d="m 78.874995,359.73437 c -0.24609,-0.73828 -1.10546,-0.98437 -1.84375,-0.73828 -0.73828,0.2461 -0.98046,1.10547 -0.73828,1.84375 0.49219,1.23047 0.98438,2.58203 1.59766,3.8086 0.125,0.49218 0.73828,0.85937 1.23047,0.85937 0.12109,0 0.36719,0 0.49219,-0.12109 0.73437,-0.2461 0.98046,-1.10547 0.73437,-1.84375 -0.36719,-1.35156 -0.85937,-2.57813 -1.47266,-3.8086 z m 0,0"
     fill-opacity="1"
     fill-rule="nonzero"
     id="path45" />
  <path
     fill="#000000"
     d="m 155.29296,458.76172 c -1.10547,-0.86328 -2.21093,-1.59766 -3.3164,-2.45703 -0.61328,-0.49219 -1.47266,-0.3711 -1.96485,0.24218 -0.49218,0.61719 -0.37109,1.47657 0.2461,1.96875 1.10547,0.85938 2.21093,1.59766 3.3164,2.57813 0.2461,0.125 0.49219,0.24609 0.85938,0.24609 0.49219,0 0.85937,-0.12109 1.10547,-0.49218 0.37109,-0.73438 0.24609,-1.59766 -0.2461,-2.08594 z m 0,0"
     fill-opacity="1"
     fill-rule="nonzero"
     id="path47" />
  <path
     fill="#000000"
     d="m 61.304685,285.52734 c 0.73828,0 1.35156,-0.61328 1.23047,-1.47265 -0.125,-1.35157 -0.125,-2.70313 -0.125,-4.05469 0,-0.73828 -0.61328,-1.35156 -1.35156,-1.35156 -0.73438,0 -1.35156,0.61328 -1.35156,1.35156 0,1.35156 0.125,2.70312 0.125,4.05469 0.12109,0.98047 0.61328,1.47265 1.47265,1.47265 z m 0,0"
     fill-opacity="1"
     fill-rule="nonzero"
     id="path49" />
  <path
     fill="#000000"
     d="m 121.99999,428.53516 c -0.49218,-0.48829 -1.35156,-0.61329 -1.96875,-0.1211 -0.48828,0.49219 -0.61328,1.35156 -0.12109,1.96485 0.85938,0.98437 1.84375,1.96484 2.82422,2.94921 0.24609,0.2461 0.61719,0.49219 0.98437,0.49219 0.36719,0 0.61329,-0.125 0.85938,-0.37109 0.49219,-0.48828 0.49219,-1.35156 0.125,-1.96485 -0.85938,-0.85937 -1.84375,-1.84375 -2.70313,-2.94921 z m 0,0"
     fill-opacity="1"
     fill-rule="nonzero"
     id="path51" />
  <path
     fill="#000000"
     d="m 172.12499,470.1875 c -1.22656,-0.73828 -2.33203,-1.47656 -3.4375,-2.21094 -0.61718,-0.37109 -1.47656,-0.125 -1.96875,0.48828 -0.36718,0.61719 -0.12109,1.47657 0.49219,1.96875 1.23047,0.73438 2.33594,1.47266 3.44141,2.21094 0.12109,0.12109 0.49219,0.12109 0.73828,0.12109 0.48828,0 0.85937,-0.24609 1.22656,-0.61328 0.2461,-0.61328 0.1211,-1.47656 -0.49219,-1.96484 z m 0,0"
     fill-opacity="1"
     fill-rule="nonzero"
     id="path53" />
  <path
     fill="#000000"
     d="m 97.425785,395.98047 c -0.36719,-0.61719 -1.22657,-0.86328 -1.96485,-0.49219 -0.61328,0.36719 -0.85937,1.22656 -0.49219,1.96484 0.73829,1.22657 1.47657,2.33594 2.21094,3.44141 0.2461,0.36719 0.73828,0.61328 1.23047,0.61328 0.24609,0 0.49219,-0.125 0.73828,-0.125 0.61328,-0.48828 0.859375,-1.22656 0.36719,-1.96484 -0.61328,-1.10547 -1.35156,-2.21094 -2.08984,-3.4375 z m 0,0"
     fill-opacity="1"
     fill-rule="nonzero"
     id="path55" />
  <path
     fill="#000000"
     d="m 87.351565,378.16406 c -0.36719,-0.61328 -1.22657,-0.85937 -1.84375,-0.61328 -0.61328,0.36719 -0.85938,1.22656 -0.61328,1.83984 0.61328,1.23047 1.23046,2.45704 1.96484,3.6875 0.24609,0.49219 0.73828,0.73829 1.23047,0.73829 0.12109,0 0.49219,-0.125 0.61328,-0.125 0.61328,-0.36719 0.85937,-1.22657 0.49219,-1.84375 -0.61328,-1.22657 -1.23047,-2.33204 -1.84375,-3.6836 z m 0,0"
     fill-opacity="1"
     fill-rule="nonzero"
     id="path57" />
  <path
     fill="#000000"
     d="m 108.97656,412.80859 c -0.49219,-0.61328 -1.23047,-0.73437 -1.96485,-0.24218 -0.61718,0.48828 -0.73828,1.22656 -0.24609,1.96484 0.85937,1.10547 1.59766,2.21094 2.57812,3.31641 0.2461,0.36718 0.61329,0.49218 1.10547,0.49218 0.2461,0 0.61328,-0.125 0.85938,-0.24609 0.61719,-0.49219 0.73828,-1.35156 0.24609,-1.96484 -0.98047,-1.10547 -1.71875,-2.21094 -2.57812,-3.32032 z m 0,0"
     fill-opacity="1"
     fill-rule="nonzero"
     id="path59" />
  <path
     fill="#000000"
     d="m 61.550785,258.25391 c -0.73438,-0.125 -1.35157,0.48828 -1.47266,1.22656 -0.125,1.35156 -0.125,2.70312 -0.125,4.05469 0,0.73828 0.49219,1.35156 1.23047,1.47265 0,0 0,0 0.12109,0 0.73828,0 1.35156,-0.48828 1.35156,-1.22656 0.125,-1.35156 0.125,-2.70313 0.125,-4.05469 0.1211,-0.85937 -0.49218,-1.47265 -1.23046,-1.47265 z m 0,0"
     fill-opacity="1"
     fill-rule="nonzero"
     id="path61" />
  <path
     fill="#000000"
     d="m 109.34374,131.82812 c 0.2461,0.125 0.49219,0.2461 0.85938,0.2461 0.37109,0 0.85937,-0.1211 1.10547,-0.49219 0.86328,-1.10547 1.72265,-2.21094 2.58203,-3.19141 0.49219,-0.49218 0.36719,-1.47656 -0.125,-1.96875 -0.48828,-0.48828 -1.47266,-0.36718 -1.96484,0.125 -0.85938,1.10547 -1.71875,2.21094 -2.57813,3.31641 -0.61719,0.61328 -0.49219,1.59766 0.12109,1.96484 z m 0,0"
     fill-opacity="1"
     fill-rule="nonzero"
     id="path63" />
  <path
     fill="#000000"
     d="m 524.24218,277.78516 c 0,0.73828 0.49219,1.35156 1.35156,1.35156 0.73829,0 1.35157,-0.61328 1.35157,-1.35156 0,-1.35157 0,-2.69922 0,-4.05079 h -2.70313 c 0,1.35157 0,2.69922 0,4.05079 z m 0,0"
     fill-opacity="1"
     fill-rule="nonzero"
     id="path65" />
  <path
     fill="#000000"
     d="m 123.47265,116.47266 c 0.37109,0 0.73828,-0.125 0.98438,-0.49219 0.85937,-0.98438 1.96484,-1.96485 2.82421,-2.94922 0.49219,-0.49219 0.49219,-1.35156 0,-1.96484 -0.49218,-0.49219 -1.35156,-0.49219 -1.96483,0 -0.98438,0.98046 -1.96485,1.96484 -2.82422,2.94921 -0.49219,0.48829 -0.49219,1.47266 0.1211,1.96485 0.24609,0.36719 0.61328,0.49219 0.85936,0.49219 z m 0,0"
     fill-opacity="1"
     fill-rule="nonzero"
     id="path67" />
  <path
     fill="#000000"
     d="m 526.94532,273.11719 c 0,-0.73438 -0.61328,-1.35157 -1.35157,-1.35157 -0.73438,0 -1.35156,0.61719 -1.35156,1.35157 v 0.49218 h 2.70313 z m 0,0"
     fill-opacity="1"
     fill-rule="nonzero"
     id="path69" />
  <path
     fill="#000000"
     d="m 73.593745,197.92969 c -0.73828,-0.2461 -1.47656,0.12109 -1.72265,0.85937 -0.49219,1.22656 -0.85938,2.70313 -1.22656,3.92969 -0.2461,0.73828 0.12109,1.47656 0.85937,1.71875 0.12109,0 0.24609,0.125 0.49219,0.125 0.48828,0 1.10547,-0.36719 1.22656,-0.85938 0.49219,-1.23046 0.85938,-2.70312 1.23047,-3.93359 0.24609,-0.85937 -0.125,-1.59766 -0.85938,-1.83984 z m 0,0"
     fill-opacity="1"
     fill-rule="nonzero"
     id="path71" />
  <path
     fill="#000000"
     d="m 63.761715,237.85547 c -0.73437,-0.1211 -1.47265,0.37109 -1.59765,1.23047 -0.1211,1.35156 -0.36719,2.70312 -0.48828,4.05468 -0.125,0.73829 0.48828,1.47266 1.22656,1.59766 0.125,0 0.125,0 0.125,0 0.61328,0 1.22656,-0.49219 1.35156,-1.23047 0.12109,-1.35156 0.36719,-2.70312 0.48828,-4.05469 0.125,-0.85937 -0.36719,-1.47265 -1.10547,-1.59765 z m 0,0"
     fill-opacity="1"
     fill-rule="nonzero"
     id="path73" />
  <path
     fill="#000000"
     d="m 67.816405,217.70703 c -0.73437,-0.12109 -1.47266,0.24609 -1.59766,0.98438 -0.36718,1.35156 -0.61328,2.70312 -0.85937,4.05468 -0.12109,0.73828 0.24609,1.47266 0.98437,1.59766 0.1211,0 0.1211,0 0.2461,0 0.61328,0 1.22656,-0.49219 1.35156,-1.10547 0.24609,-1.35156 0.61328,-2.70312 0.85938,-4.05469 0.12109,-0.61328 -0.2461,-1.35156 -0.98438,-1.47656 z m 0,0"
     fill-opacity="1"
     fill-rule="nonzero"
     id="path75" />
  <path
     fill="#000000"
     d="m 97.425785,148.66016 c 0.24609,0.125 0.49218,0.125 0.73828,0.125 0.49218,0 0.85937,-0.125 1.23047,-0.61719 0.734365,-1.22656 1.472645,-2.33203 2.332025,-3.31641 0.49218,-0.61328 0.24609,-1.47265 -0.36719,-1.96484 -0.61719,-0.49219 -1.476555,-0.2461 -1.964835,0.36719 -0.73829,1.23046 -1.59766,2.33593 -2.33594,3.4414 -0.36719,0.61328 -0.2461,1.59766 0.36719,1.96485 z m 0,0"
     fill-opacity="1"
     fill-rule="nonzero"
     id="path77" />
  <path
     fill="#000000"
     d="m 189.9414,480.26172 c -1.23047,-0.61719 -2.45703,-1.23047 -3.6875,-1.96875 -0.61328,-0.36719 -1.47266,-0.1211 -1.84375,0.49219 -0.36719,0.61718 -0.12109,1.47656 0.49219,1.84375 1.23047,0.61328 2.45703,1.23046 3.6875,1.96484 0.12109,0.125 0.36719,0.125 0.61328,0.125 0.49219,0 0.98437,-0.24609 1.23047,-0.73828 0.36719,-0.49219 0.12109,-1.35156 -0.49219,-1.71875 z m 0,0"
     fill-opacity="1"
     fill-rule="nonzero"
     id="path79" />
  <path
     fill="#000000"
     d="m 87.230465,166.47656 c 0.1211,0.1211 0.49219,0.1211 0.61328,0.1211 0.49219,0 0.98438,-0.2461 1.23047,-0.73829 0.61328,-1.22656 1.22657,-2.33203 1.96485,-3.68359 0.36718,-0.61328 0.12109,-1.47266 -0.49219,-1.84375 -0.61328,-0.36719 -1.47266,-0.12109 -1.84375,0.49219 -0.61328,1.22656 -1.35156,2.45703 -1.96484,3.6875 -0.49219,0.85937 -0.2461,1.59375 0.49218,1.96484 z m 0,0"
     fill-opacity="1"
     fill-rule="nonzero"
     id="path81" />
  <path
     fill="#000000"
     d="m 78.507815,185.02734 c 0.12109,0.1211 0.36718,0.1211 0.48828,0.1211 0.49219,0 0.98437,-0.24219 1.23047,-0.85938 0.49218,-1.22656 1.10547,-2.57812 1.59765,-3.68359 0.2461,-0.73828 0,-1.47656 -0.73828,-1.84375 -0.73828,-0.2461 -1.47265,0 -1.84375,0.73828 -0.48828,1.22656 -1.10547,2.57812 -1.59765,3.80859 -0.24219,0.73438 0.125,1.47266 0.86328,1.71875 z m 0,0"
     fill-opacity="1"
     fill-rule="nonzero"
     id="path83" />
  <path
     fill="#000000"
     d="m 287.73829,42.87891 c 1.35155,0 2.70312,-0.125 4.05467,-0.125 0.73438,0 1.35158,-0.61329 1.35158,-1.35157 0,-0.73437 -0.6172,-1.35156 -1.35158,-1.35156 -1.35155,0 -2.70312,0 -4.05467,0.125 -0.73829,0 -1.35158,0.61328 -1.35158,1.35156 0,0.73828 0.61329,1.35157 1.35158,1.35157 z m 0,0"
     fill-opacity="1"
     fill-rule="nonzero"
     id="path85" />
  <path
     fill="#000000"
     d="m 422.88282,82.4375 c 1.10547,0.73828 2.33593,1.59766 3.3164,2.33594 0.2461,0.12109 0.49219,0.24609 0.86328,0.24609 0.48829,0 0.85938,-0.125 1.10547,-0.49219 0.48828,-0.61328 0.2461,-1.47265 -0.37109,-1.96484 -1.10547,-0.85938 -2.33203,-1.59766 -3.31641,-2.33594 -0.61328,-0.49219 -1.47265,-0.24609 -1.96484,0.3711 -0.49219,0.61328 -0.24609,1.59765 0.36719,1.83984 z m 0,0"
     fill-opacity="1"
     fill-rule="nonzero"
     id="path87" />
  <path
     fill="#000000"
     d="m 442.41796,97.30469 c 0.2461,0.125 0.4922,0.37109 0.85938,0.37109 0.37109,0 0.73828,-0.125 0.98437,-0.49219 0.4922,-0.49218 0.4922,-1.47656 -0.125,-1.96875 -1.10546,-0.85937 -2.08592,-1.71875 -3.1914,-2.69922 -0.49219,-0.49218 -1.47657,-0.37109 -1.96875,0.1211 -0.48828,0.49219 -0.36719,1.47265 0.125,1.96484 1.22656,0.98438 2.33203,1.84375 3.3164,2.70313 z m 0,0"
     fill-opacity="1"
     fill-rule="nonzero"
     id="path89" />
  <path
     fill="#000000"
     d="m 471.16796,126.30078 c 0.2461,0.36719 0.61329,0.49219 1.10547,0.49219 0.2461,0 0.61328,-0.125 0.85938,-0.2461 0.49218,-0.49218 0.61328,-1.35156 0.125,-1.96484 -0.86328,-1.10937 -1.72266,-2.08984 -2.70313,-3.19531 -0.49219,-0.49219 -1.35156,-0.61328 -1.96875,-0.125 -0.48828,0.49219 -0.61328,1.35156 -0.12109,1.96875 0.85937,1.10547 1.84375,2.08594 2.70312,3.07031 z m 0,0"
     fill-opacity="1"
     fill-rule="nonzero"
     id="path91" />
  <path
     fill="#000000"
     d="m 208.61718,488.49219 c -1.23047,-0.49219 -2.58203,-0.98438 -3.80859,-1.59766 -0.73827,-0.24609 -1.47656,0 -1.84375,0.73828 -0.2461,0.73828 0,1.47266 0.73437,1.84375 1.23048,0.48828 2.58203,1.10547 3.80861,1.59766 0.125,0.12109 0.37108,0.12109 0.49218,0.12109 0.49219,0 1.10547,-0.36719 1.23047,-0.85937 0.36719,-0.73828 0.1211,-1.47657 -0.61329,-1.84375 z m 0,0"
     fill-opacity="1"
     fill-rule="nonzero"
     id="path93" />
  <path
     fill="#000000"
     d="m 405.4375,71.875 c 1.23046,0.61328 2.33594,1.35156 3.5625,1.96484 0.125,0.1211 0.49219,0.1211 0.73829,0.1211 0.49217,0 0.85937,-0.2461 1.22655,-0.61328 0.37109,-0.61329 0.125,-1.47266 -0.48828,-1.96485 -1.23047,-0.73828 -2.33594,-1.35156 -3.6875,-1.96484 -0.61328,-0.3711 -1.47266,-0.125 -1.84375,0.48828 -0.36719,0.61719 -0.1211,1.59766 0.49219,1.96875 z m 0,0"
     fill-opacity="1"
     fill-rule="nonzero"
     id="path95" />
  <path
     fill="#000000"
     d="m 517.11718,216.60156 c 0.125,0.61719 0.73828,0.98438 1.35156,0.98438 0.1211,0 0.1211,0 0.36719,0 0.73828,-0.125 1.23047,-0.85938 0.98438,-1.59766 -0.36719,-1.35156 -0.73828,-2.70312 -1.10547,-4.05469 -0.125,-0.73828 -0.85938,-1.22656 -1.59766,-0.98437 -0.73828,0.24609 -1.22656,0.86328 -0.98437,1.59765 0.37109,1.35157 0.61718,2.70313 0.98437,4.05469 z m 0,0"
     fill-opacity="1"
     fill-rule="nonzero"
     id="path97" />
  <path
     fill="#000000"
     d="m 483.45312,142.64062 c 0.24609,0.36719 0.73829,0.49219 1.10547,0.49219 0.24609,0 0.4922,-0.125 0.85937,-0.24609 0.6172,-0.49219 0.86329,-1.23047 0.3711,-1.96485 -0.85938,-1.10546 -1.59766,-2.33593 -2.33594,-3.32031 -0.49219,-0.61328 -1.22656,-0.73437 -1.96484,-0.24219 -0.61329,0.48829 -0.73829,1.22657 -0.2461,1.96485 0.73828,1.10547 1.47266,2.21094 2.21094,3.3164 z m 0,0"
     fill-opacity="1"
     fill-rule="nonzero"
     id="path99" />
  <path
     fill="#000000"
     d="m 521.29296,236.50781 c 0.125,0.61328 0.73829,1.22656 1.35158,1.22656 0.125,0 0.125,0 0.125,0 0.73828,-0.12109 1.22655,-0.85937 1.10546,-1.59765 -0.125,-1.35156 -0.49218,-2.70313 -0.73829,-4.05469 -0.12109,-0.73437 -0.85937,-1.22656 -1.59765,-1.10547 -0.73438,0.125 -1.22657,0.85938 -1.10547,1.59766 0.37109,1.35156 0.6172,2.58203 0.85937,3.93359 z m 0,0"
     fill-opacity="1"
     fill-rule="nonzero"
     id="path101" />
  <path
     fill="#000000"
     d="m 368.08984,55.16406 c 1.22657,0.49219 2.57812,0.85938 3.80859,1.35156 0.12111,0.1211 0.24219,0.1211 0.48828,0.1211 0.49219,0 1.10547,-0.36719 1.23047,-0.85938 0.24611,-0.73437 -0.125,-1.47265 -0.85937,-1.71875 -1.23047,-0.49218 -2.70313,-0.85937 -3.9336,-1.35156 -0.73437,-0.24609 -1.47265,0.12109 -1.71875,0.85938 0,0.61328 0.36719,1.35156 0.98438,1.59765 z m 0,0"
     fill-opacity="1"
     fill-rule="nonzero"
     id="path103" />
  <path
     fill="#000000"
     d="m 503.60157,178.02344 c 0.24609,0.49218 0.73828,0.85937 1.23047,0.85937 0.12108,0 0.36717,0 0.49217,-0.12109 0.73438,-0.2461 0.98047,-1.10547 0.61329,-1.84375 -0.49218,-1.22656 -1.23046,-2.45703 -1.71875,-3.6836 -0.37109,-0.61718 -1.23046,-0.98437 -1.84375,-0.61718 -0.61329,0.37109 -0.98438,1.23047 -0.61329,1.84375 0.61329,1.10547 1.22658,2.45703 1.83986,3.5625 z m 0,0"
     fill-opacity="1"
     fill-rule="nonzero"
     id="path105" />
  <path
     fill="#000000"
     d="m 494.26562,159.96484 c 0.24609,0.49219 0.73829,0.73828 1.22656,0.73828 0.2461,0 0.49219,-0.125 0.61719,-0.125 0.61329,-0.36718 0.85938,-1.22656 0.4922,-1.84375 -0.6172,-1.22656 -1.35157,-2.33203 -2.08985,-3.5625 -0.37109,-0.61328 -1.23047,-0.85937 -1.96484,-0.49218 -0.61719,0.37109 -0.86328,1.23047 -0.49219,1.96875 0.85938,0.85937 1.47266,2.08593 2.21093,3.3164 z m 0,0"
     fill-opacity="1"
     fill-rule="nonzero"
     id="path107" />
  <path
     fill="#000000"
     d="m 511.21875,197.06641 c 0.125,0.49218 0.73829,0.86328 1.23046,0.86328 0.1211,0 0.2461,0 0.4922,-0.125 0.73438,-0.2461 1.10546,-0.98438 0.85938,-1.71875 -0.4922,-1.23047 -0.85938,-2.70313 -1.35158,-3.9336 -0.24609,-0.73437 -1.10546,-1.10547 -1.71875,-0.85937 -0.73828,0.24609 -1.10937,1.10547 -0.86328,1.71875 0.3711,1.47656 0.86328,2.70312 1.35157,4.05469 z m 0,0"
     fill-opacity="1"
     fill-rule="nonzero"
     id="path109" />
  <path
     fill="#000000"
     d="m 171.01953,77.52344 c 0.24609,0 0.49218,-0.1211 0.73828,-0.1211 1.22656,-0.73828 2.33203,-1.47656 3.4414,-2.08984 0.61328,-0.36719 0.85938,-1.22656 0.48828,-1.96484 -0.36718,-0.61329 -1.22656,-0.85938 -1.96484,-0.49219 -1.22656,0.73828 -2.33203,1.47656 -3.5625,2.21094 -0.61328,0.37109 -0.85937,1.23046 -0.49219,1.96875 0.3711,0.24218 0.85938,0.48828 1.35157,0.48828 z m 0,0"
     fill-opacity="1"
     fill-rule="nonzero"
     id="path111" />
  <path
     fill="#000000"
     d="m 207.63281,59.09766 c 0.12109,0 0.36718,0 0.49218,-0.125 1.22657,-0.49219 2.57813,-0.98438 3.8086,-1.47266 0.73437,-0.24609 1.10548,-1.10547 0.85937,-1.72266 -0.24608,-0.73437 -1.10547,-1.10547 -1.71875,-0.85937 -1.23047,0.49219 -2.58202,0.98437 -3.80858,1.47656 -0.73828,0.24219 -0.98438,1.10547 -0.73828,1.71875 0.12109,0.61328 0.49219,0.98438 1.10546,0.98438 z m 0,0"
     fill-opacity="1"
     fill-rule="nonzero"
     id="path113" />
  <path
     fill="#000000"
     d="m 188.95703,67.44922 c 0.125,0 0.49218,-0.1211 0.61328,-0.1211 1.23047,-0.61328 2.45703,-1.23046 3.6875,-1.84375 0.61328,-0.36718 0.98437,-1.22656 0.61328,-1.84375 -0.36719,-0.61328 -1.22656,-0.98046 -1.84375,-0.61328 -1.22656,0.61328 -2.45703,1.23047 -3.6836,1.84375 -0.61328,0.36719 -0.85937,1.22657 -0.61328,1.84375 0.2461,0.48828 0.61328,0.73438 1.22657,0.73438 z m 0,0"
     fill-opacity="1"
     fill-rule="nonzero"
     id="path115" />
  <path
     fill="#000000"
     d="m 137.23437,101.72656 c 0.24609,0.2461 0.61328,0.49219 0.98047,0.49219 0.37109,0 0.61719,-0.12109 0.86328,-0.36719 0.98047,-0.85937 1.96484,-1.84375 3.07031,-2.70312 0.49219,-0.49219 0.61328,-1.35157 0.1211,-1.96485 -0.48829,-0.49218 -1.35157,-0.61718 -1.96485,-0.125 -0.98437,0.85938 -2.08984,1.84375 -3.07031,2.70313 -0.49219,0.49219 -0.61328,1.35156 0,1.96484 z m 0,0"
     fill-opacity="1"
     fill-rule="nonzero"
     id="path117" />
  <path
     fill="#000000"
     d="m 154.0664,89.07422 c 0.24609,0 0.49219,-0.125 0.85938,-0.2461 1.10546,-0.85937 2.21093,-1.59765 3.3164,-2.45703 0.61328,-0.49218 0.73828,-1.23047 0.2461,-1.96484 -0.49219,-0.61719 -1.22657,-0.73828 -1.96485,-0.24609 -1.10547,0.85937 -2.21094,1.59765 -3.3164,2.45703 -0.61719,0.49218 -0.73829,1.22656 -0.2461,1.96484 0.2461,0.24609 0.73438,0.49219 1.10547,0.49219 z m 0,0"
     fill-opacity="1"
     fill-rule="nonzero"
     id="path119" />
  <path
     fill="#000000"
     d="m 328.52734,45.45703 c 1.35157,0.125 2.70312,0.49219 4.0547,0.61719 0.12108,0 0.12108,0 0.24608,0 0.61328,0 1.22656,-0.49219 1.35156,-1.10547 0.12111,-0.73828 -0.37109,-1.47656 -1.10547,-1.59766 -1.35156,-0.24609 -2.70312,-0.49218 -4.05468,-0.61718 -0.73829,-0.1211 -1.47657,0.37109 -1.59766,1.23046 -0.125,0.61329 0.36719,1.35157 1.10547,1.47266 z m 0,0"
     fill-opacity="1"
     fill-rule="nonzero"
     id="path121" />
  <path
     fill="#000000"
     d="m 348.55468,49.39062 c 1.35157,0.36719 2.70313,0.61329 3.92969,0.98047 0.125,0 0.24609,0 0.36719,0 0.61719,0 1.23048,-0.36718 1.23048,-0.98047 0.12108,-0.73828 -0.24611,-1.47656 -0.98438,-1.59765 -1.35157,-0.36719 -2.70312,-0.73828 -4.0547,-0.98438 -0.73437,-0.12109 -1.47264,0.2461 -1.59375,0.98438 -0.125,0.73828 0.3672,1.47265 1.10547,1.59765 z m 0,0"
     fill-opacity="1"
     fill-rule="nonzero"
     id="path123" />
  <path
     fill="#000000"
     d="m 308.2539,43.24609 c 1.35156,0.125 2.70313,0.125 4.05469,0.2461 h 0.125 c 0.73437,0 1.22656,-0.49219 1.35156,-1.22657 0.12109,-0.73828 -0.49219,-1.35156 -1.23047,-1.47656 -1.35156,-0.12109 -2.70312,-0.12109 -4.05469,-0.24609 -0.73828,0 -1.35156,0.49219 -1.47265,1.23047 -0.125,0.73437 0.49219,1.47265 1.22656,1.47265 z m 0,0"
     fill-opacity="1"
     fill-rule="nonzero"
     id="path125" />
  <path
     fill="#000000"
     d="m 246.94921,47.42578 c 0.1211,0 0.1211,0 0.2461,0 1.35156,-0.24609 2.69922,-0.49219 4.05078,-0.86328 0.73828,-0.12109 1.23047,-0.85938 1.10937,-1.59375 -0.125,-0.73828 -0.86328,-1.23047 -1.59765,-1.10938 -1.35157,0.2461 -2.70313,0.49219 -4.05469,0.86329 -0.73828,0.12109 -1.23047,0.85937 -1.10547,1.59375 0.24609,0.61718 0.73438,1.10937 1.35156,1.10937 z m 0,0"
     fill-opacity="1"
     fill-rule="nonzero"
     id="path127" />
  <path
     fill="#000000"
     d="m 267.34375,44.23047 c 0.12109,0 0.12109,0 0.12109,0 1.35157,-0.125 2.70312,-0.2461 4.0547,-0.49219 C 272.25781,43.61719 272.75,43 272.75,42.26562 c -0.125,-0.73828 -0.73829,-1.23046 -1.47657,-1.23046 -1.35156,0.12109 -2.70312,0.24609 -4.05468,0.49218 -0.73438,0.1211 -1.22657,0.73828 -1.22657,1.59766 0,0.61328 0.61328,1.10547 1.35157,1.10547 z m 0,0"
     fill-opacity="1"
     fill-rule="nonzero"
     id="path129" />
  <path
     fill="#000000"
     d="m 227.04296,52.33984 c 0.125,0 0.2461,0 0.3711,-0.125 1.22656,-0.36718 2.70312,-0.73828 3.92968,-1.10547 0.73829,-0.12109 1.23047,-0.85937 0.85938,-1.59765 -0.12109,-0.73438 -0.98047,-1.22656 -1.59766,-0.85938 -1.34765,0.36719 -2.69922,0.73828 -4.05078,1.23047 -0.73828,0.1211 -1.10937,0.98047 -0.86328,1.71875 0.24609,0.36719 0.73828,0.73828 1.35156,0.73828 z m 0,0"
     fill-opacity="1"
     fill-rule="nonzero"
     id="path131" />
  <path
     fill="#000000"
     d="m 387.13282,62.66016 c 1.22655,0.48828 2.45703,1.10546 3.68359,1.71875 0.125,0.12109 0.37109,0.12109 0.49219,0.12109 0.49219,0 0.98437,-0.24219 1.23047,-0.85938 0.36718,-0.73437 0,-1.47265 -0.6172,-1.84375 -1.22655,-0.48828 -2.57812,-1.22656 -3.68358,-1.71875 -0.73829,-0.24609 -1.47658,0 -1.84375,0.73829 -0.2461,0.73828 0.12108,1.59765 0.73828,1.84375 z m 0,0"
     fill-opacity="1"
     fill-rule="nonzero"
     id="path133" />
  <path
     fill="#000000"
     d="m 423.12891,464.65625 c -1.10547,0.73828 -2.33204,1.59766 -3.31641,2.33594 -0.61329,0.49218 -0.85938,1.22656 -0.36718,1.96484 0.24218,0.36719 0.73437,0.61328 1.22655,0.61328 0.24609,0 0.4922,-0.12109 0.73829,-0.12109 1.22655,-0.73828 2.33203,-1.59766 3.4375,-2.33594 0.61719,-0.48828 0.86328,-1.22656 0.37109,-1.96484 -0.49218,-0.73828 -1.35156,-0.98438 -2.08984,-0.49219 z m 0,0"
     fill-opacity="1"
     fill-rule="nonzero"
     id="path135" />
  <path
     fill="#000000"
     d="m 387.62109,484.5625 c -1.22655,0.48828 -2.45703,1.10547 -3.68359,1.59375 -0.73829,0.24609 -0.98438,1.10547 -0.73829,1.84375 0.125,0.49219 0.73829,0.85937 1.23047,0.85937 0.1211,0 0.36719,0 0.48828,-0.12109 1.23047,-0.49219 2.58204,-1.10547 3.6875,-1.59766 0.73829,-0.24609 0.98438,-1.10546 0.73829,-1.84375 -0.24609,-0.73437 -1.10546,-0.98046 -1.72266,-0.73437 z m 0,0"
     fill-opacity="1"
     fill-rule="nonzero"
     id="path137" />
  <path
     fill="#000000"
     d="m 439.59375,452.37109 c -1.10546,0.85938 -2.08984,1.71875 -3.19531,2.58203 -0.61328,0.48829 -0.73828,1.35157 -0.125,1.96485 0.2461,0.36719 0.61719,0.49219 1.10938,0.49219 0.24218,0 0.61328,-0.125 0.85937,-0.2461 1.10547,-0.85937 2.21094,-1.72265 3.19141,-2.58203 0.49219,-0.49219 0.61719,-1.35156 0.125,-1.96484 -0.49219,-0.61328 -1.47266,-0.73828 -1.96485,-0.2461 z m 0,0"
     fill-opacity="1"
     fill-rule="nonzero"
     id="path139" />
  <path
     fill="#000000"
     d="m 405.80468,475.34766 c -1.22656,0.61328 -2.33203,1.22656 -3.5625,1.96484 -0.61328,0.36719 -0.85937,1.22656 -0.49219,1.84375 0.2461,0.48828 0.73829,0.73437 1.23047,0.73437 0.1211,0 0.49219,-0.12109 0.61328,-0.12109 1.23047,-0.61328 2.45704,-1.23047 3.6875,-1.96484 0.61329,-0.3711 0.85938,-1.23047 0.49219,-1.84375 -0.49219,-0.73828 -1.23047,-0.98438 -1.96875,-0.61328 z m 0,0"
     fill-opacity="1"
     fill-rule="nonzero"
     id="path141" />
  <path
     fill="#000000"
     d="m 451.75391,443.52734 c 0.24609,0.24219 0.61719,0.48828 0.98438,0.48828 0.36717,0 0.61328,-0.12109 0.85937,-0.36718 0.98438,-0.85938 1.96484,-1.96485 2.94921,-2.82422 0.4922,-0.49219 0.4922,-1.35156 0,-1.96875 -0.49219,-0.48828 -1.35155,-0.48828 -1.96483,0 -0.98438,0.86328 -1.96485,1.96875 -2.94922,2.82812 -0.3672,0.49219 -0.3672,1.35157 0.12109,1.84375 z m 0,0"
     fill-opacity="1"
     fill-rule="nonzero"
     id="path143" />
  <path
     fill="#000000"
     d="m 503.84766,371.89844 c -0.61329,-0.36719 -1.47266,0 -1.84375,0.61328 -0.48829,1.23047 -1.22656,2.45703 -1.83984,3.6875 -0.3711,0.61328 -0.125,1.47265 0.61328,1.83984 0.12109,0.125 0.36719,0.125 0.61328,0.125 0.49219,0 0.98437,-0.24609 1.23047,-0.73828 0.61328,-1.22656 1.22656,-2.45703 1.83984,-3.68359 0.3711,-0.73828 0,-1.59766 -0.61328,-1.84375 z m 0,0"
     fill-opacity="1"
     fill-rule="nonzero"
     id="path145" />
  <path
     fill="#000000"
     d="m 468.71093,423.86719 c -0.85937,0.98437 -1.84375,2.08984 -2.70312,3.07031 -0.49219,0.49219 -0.49219,1.47656 0.12109,1.96875 0.24609,0.24609 0.49219,0.36719 0.86328,0.36719 0.36719,0 0.73438,-0.1211 0.98047,-0.49219 0.85938,-0.98047 1.84375,-2.08594 2.70313,-3.07031 0.49218,-0.49219 0.49218,-1.47266 -0.1211,-1.96485 -0.49219,-0.49218 -1.35156,-0.49218 -1.84375,0.1211 z m 0,0"
     fill-opacity="1"
     fill-rule="nonzero"
     id="path147" />
  <path
     fill="#000000"
     d="m 483.20704,407.40625 c -0.61329,-0.49219 -1.47267,-0.24609 -1.96485,0.24219 -0.85937,1.10937 -1.59765,2.21484 -2.33594,3.32031 -0.48829,0.61328 -0.36718,1.47266 0.24609,1.96484 0.24609,0.1211 0.4922,0.2461 0.85937,0.2461 0.4922,0 0.86329,-0.125 1.10938,-0.49219 0.85937,-1.10547 1.59375,-2.21094 2.45703,-3.31641 0.48829,-0.61328 0.2422,-1.47656 -0.37108,-1.96484 z m 0,0"
     fill-opacity="1"
     fill-rule="nonzero"
     id="path149" />
  <path
     fill="#000000"
     d="m 494.26562,390.20312 c -0.61328,-0.36718 -1.47266,-0.12109 -1.96483,0.49219 -0.73829,1.23047 -1.35158,2.33594 -2.08985,3.5625 -0.36719,0.61328 -0.12109,1.47656 0.49219,1.96485 0.12109,0.125 0.49219,0.125 0.73828,0.125 0.48828,0 0.85938,-0.2461 1.22656,-0.61329 0.73828,-1.23046 1.47266,-2.33593 2.08985,-3.5664 0.49218,-0.85938 0.24609,-1.59375 -0.4922,-1.96485 z m 0,0"
     fill-opacity="1"
     fill-rule="nonzero"
     id="path151" />
  <path
     fill="#000000"
     d="m 267.95704,503.23437 c -1.35158,-0.12109 -2.70313,-0.24609 -4.0547,-0.49218 -0.73827,-0.1211 -1.47266,0.49218 -1.59766,1.23047 -0.12109,0.73828 0.49219,1.47265 1.23048,1.59765 1.35155,0.1211 2.70313,0.36719 4.05468,0.49219 0.12109,0 0.12109,0 0.12109,0 0.73828,0 1.23048,-0.49219 1.35157,-1.23047 0.24609,-0.85937 -0.36719,-1.47266 -1.10546,-1.59766 z m 0,0"
     fill-opacity="1"
     fill-rule="nonzero"
     id="path153" />
  <path
     fill="#000000"
     d="m 247.80859,500.16406 c -1.35156,-0.24609 -2.70313,-0.49219 -4.05469,-0.85937 -0.73827,-0.125 -1.47656,0.24609 -1.59766,0.98047 -0.12109,0.73828 0.2461,1.47656 0.98438,1.59765 1.35156,0.2461 2.70312,0.49219 4.05469,0.85938 0.12109,0 0.12109,0 0.24218,0 0.61719,0 1.23047,-0.48828 1.35157,-1.10547 0.24609,-0.61328 -0.24219,-1.35156 -0.98047,-1.47266 z m 0,0"
     fill-opacity="1"
     fill-rule="nonzero"
     id="path155" />
  <path
     fill="#000000"
     d="m 349.04296,497.82812 c -1.22656,0.3711 -2.70312,0.61719 -4.05078,0.86329 -0.73827,0.12109 -1.23047,0.85937 -0.98437,1.59375 0.12109,0.61718 0.73828,1.10937 1.35156,1.10937 0.12109,0 0.12109,0 0.24609,0 1.35157,-0.24609 2.70313,-0.61719 4.05469,-0.98437 0.73438,-0.125 1.22656,-0.85938 0.98047,-1.59766 -0.12108,-0.73828 -0.85937,-1.10547 -1.59766,-0.98438 z m 0,0"
     fill-opacity="1"
     fill-rule="nonzero"
     id="path157" />
  <path
     fill="#000000"
     d="m 227.90624,495.25 c -1.23046,-0.36719 -2.70312,-0.85938 -3.93359,-1.23047 -0.73827,-0.24609 -1.47266,0.125 -1.71875,0.86328 -0.125,0.73438 0.12109,1.47266 0.85938,1.71875 1.22656,0.49219 2.70312,0.85938 3.92968,1.22656 0.125,0 0.24611,0.125 0.37111,0.125 0.49218,0 1.10547,-0.37109 1.22656,-0.98437 0.49219,-0.73438 0,-1.47266 -0.73439,-1.71875 z m 0,0"
     fill-opacity="1"
     fill-rule="nonzero"
     id="path159" />
  <path
     fill="#000000"
     d="m 329.01954,501.88281 c -1.35158,0.125 -2.70313,0.3711 -4.0547,0.61719 -0.73827,0.12109 -1.23047,0.85937 -1.23047,1.59375 0.125,0.73828 0.61719,1.23047 1.35156,1.23047 0.125,0 0.125,0 0.125,0 1.35157,-0.1211 2.70313,-0.36719 4.05469,-0.61328 0.73438,-0.125 1.22656,-0.85938 1.22656,-1.59766 0,-0.85937 -0.73827,-1.35156 -1.47264,-1.23047 z m 0,0"
     fill-opacity="1"
     fill-rule="nonzero"
     id="path161" />
  <path
     fill="#000000"
     d="m 288.35156,504.58594 c -1.35156,0 -2.70313,-0.1211 -4.05469,-0.1211 -0.73828,0 -1.35156,0.49219 -1.47266,1.22657 0,0.73828 0.48828,1.35156 1.22657,1.47656 1.35156,0.12109 2.70312,0.12109 4.05468,0.12109 0.73828,0 1.35157,-0.61328 1.35157,-1.35156 0.24609,-0.73438 -0.36719,-1.35156 -1.10547,-1.35156 z m 0,0"
     fill-opacity="1"
     fill-rule="nonzero"
     id="path163" />
  <path
     fill="#000000"
     d="m 308.74609,504.09375 c -1.35155,0.125 -2.70313,0.125 -4.05468,0.24609 -0.73829,0 -1.35157,0.61719 -1.22657,1.47657 0,0.73828 0.61328,1.22656 1.35157,1.22656 0,0 0,0 0.12109,0 1.35156,-0.1211 2.70312,-0.1211 4.05468,-0.2461 0.73828,-0.12109 1.35157,-0.73437 1.23048,-1.47265 -0.125,-0.73828 -0.6172,-1.35156 -1.47657,-1.23047 z m 0,0"
     fill-opacity="1"
     fill-rule="nonzero"
     id="path165" />
  <path
     fill="#000000"
     d="m 368.70312,492.05469 c -1.23047,0.49218 -2.58203,0.85937 -3.93358,1.23047 -0.73438,0.24609 -1.10548,0.98046 -0.85938,1.71875 0.125,0.49218 0.73827,0.85937 1.23046,0.85937 0.12109,0 0.24609,0 0.48829,-0.12109 1.23046,-0.49219 2.70313,-0.85938 3.93359,-1.23047 0.73829,-0.2461 1.10546,-0.98047 0.85937,-1.71875 -0.24608,-0.61328 -0.98437,-0.98438 -1.71875,-0.73828 z m 0,0"
     fill-opacity="1"
     fill-rule="nonzero"
     id="path167" />
  <path
     fill="#000000"
     d="m 517.85546,333.32031 c -0.73828,-0.125 -1.47655,0.2461 -1.59765,0.98047 -0.36719,1.23047 -0.73828,2.70313 -1.10547,3.93359 -0.125,0.73829 0.12109,1.47266 0.85937,1.71875 0.1211,0 0.2461,0.125 0.3672,0.125 0.49219,0 1.10546,-0.37109 1.23046,-0.98437 0.3672,-1.35156 0.73829,-2.70313 1.10547,-4.05469 0.24609,-0.85937 -0.125,-1.59765 -0.85938,-1.71875 z m 0,0"
     fill-opacity="1"
     fill-rule="nonzero"
     id="path169" />
  <path
     fill="#000000"
     d="m 523.26171,252.72266 c 0.1211,1.35156 0.2461,2.70312 0.3672,4.05468 0.12109,0.73828 0.61328,1.23047 1.35155,1.23047 h 0.1211 c 0.73828,-0.125 1.23047,-0.73828 1.23047,-1.47656 -0.1211,-1.35156 -0.1211,-2.70313 -0.36719,-4.05469 -0.125,-0.73437 -0.73828,-1.22656 -1.47656,-1.22656 -0.73829,0.12109 -1.35157,0.73828 -1.22657,1.47266 z m 0,0"
     fill-opacity="1"
     fill-rule="nonzero"
     id="path171" />
  <path
     fill="#000000"
     d="m 524.85937,292.89844 c -0.73828,-0.1211 -1.47655,0.49218 -1.47655,1.23047 -0.1211,1.35156 -0.2461,2.70312 -0.3672,4.05468 -0.125,0.73438 0.4922,1.47266 1.22656,1.47266 0.125,0 0.125,0 0.125,0 0.73438,0 1.22656,-0.49219 1.35156,-1.23047 0.1211,-1.35156 0.2461,-2.70312 0.36719,-4.05078 0,-0.73828 -0.49219,-1.47656 -1.22656,-1.47656 z m 0,0"
     fill-opacity="1"
     fill-rule="nonzero"
     id="path173" />
  <path
     fill="#000000"
     d="m 511.71093,352.85547 c -0.73828,-0.2461 -1.47265,0.12109 -1.71875,0.85937 -0.49219,1.22657 -0.98437,2.57813 -1.47656,3.8086 -0.24608,0.73828 0.125,1.47265 0.86329,1.71875 0.12109,0.125 0.36719,0.125 0.48828,0.125 0.49219,0 1.10547,-0.3711 1.23047,-0.85938 0.49219,-1.23047 0.98438,-2.58203 1.47266,-3.93359 0.24609,-0.61328 -0.1211,-1.35156 -0.85939,-1.71875 z m 0,0"
     fill-opacity="1"
     fill-rule="nonzero"
     id="path175" />
  <path
     fill="#000000"
     d="m 522.27734,313.29297 c -0.73828,-0.1211 -1.47266,0.37109 -1.59766,1.10547 -0.24609,1.35156 -0.49219,2.70312 -0.73828,4.05468 -0.12109,0.73829 0.37109,1.47657 1.10938,1.59766 0.12109,0 0.12109,0 0.24218,0 0.61719,0 1.23047,-0.49219 1.35157,-1.10547 0.24609,-1.35156 0.49218,-2.70312 0.73828,-4.05469 0.125,-0.85937 -0.36719,-1.59765 -1.10547,-1.59765 z m 0,0"
     fill-opacity="1"
     fill-rule="nonzero"
     id="path177" />
  <path
     fill="#000000"
     d="m 361.82031,477.1875 0.86328,2.58203 c 55.03906,-18.55078 99.51562,-57.375 125.4375,-109.46875 l -2.45703,-1.23047 C 460.23437,420.42578 416.25,458.88281 361.82031,477.1875 Z m 0,0"
     fill-opacity="1"
     fill-rule="nonzero"
     id="path179" />
  <path
     fill="#000000"
     d="M 197.92578,466.00781 C 146.57031,440.45312 108.23828,396.46875 89.933595,342.16406 l -2.58203,0.86328 c 18.550775,55.03907 57.374995,99.51563 109.468745,125.4375 z m 0,0"
     fill-opacity="1"
     fill-rule="nonzero"
     id="path181" />
  <path
     fill="#000000"
     d="m 361.82031,477.1875 c -54.42577,18.30859 -112.66016,14.375 -164.01563,-11.05469 l -1.23047,2.45703 c 51.97266,25.80078 111.06641,29.73047 166.10938,11.30078 z m 0,0"
     fill-opacity="1"
     fill-rule="nonzero"
     id="path183" />
  <path
     fill="#000000"
     d="M 89.808595,342.28906 C 71.503905,287.86328 75.433595,229.625 100.86718,178.26953 l -2.457025,-1.22656 c -25.80078,51.96875 -29.73437,110.9414 -11.30469,165.98437 z m 0,0"
     fill-opacity="1"
     fill-rule="nonzero"
     id="path185" />
  <path
     fill="#000000"
     d="m 98.531245,176.91797 2.457035,1.23047 c 25.55469,-51.35547 69.53906,-89.6875 123.84375,-107.9961 l -0.85938,-2.57812 c -55.04296,18.42969 -99.64062,57.375 -125.441405,109.34375 z m 0,0"
     fill-opacity="1"
     fill-rule="nonzero"
     id="path187" />
  <path
     fill="#000000"
     d="m 388.85157,81.21094 1.22655,-2.45703 C 338.10937,52.95312 279.01562,49.01953 223.97265,67.57422 l 0.85938,2.57812 c 54.30468,-18.30468 112.66406,-14.49609 164.01954,11.0586 z m 0,0"
     fill-opacity="1"
     fill-rule="nonzero"
     id="path189" />
  <path
     fill="#000000"
     d="m 108.97656,206.40625 c -0.73828,-0.24609 -1.47657,0.12109 -1.72266,0.85937 -5.89453,16.58594 -9.457025,33.91016 -10.687495,51.60157 -0.12109,0.73828 0.49219,1.35156 1.23047,1.47265 h 0.12109 c 0.73828,0 1.23047,-0.49218 1.35157,-1.22656 1.230455,-17.44531 4.792955,-34.52344 10.687495,-50.86328 0.125,-0.86328 -0.36719,-1.72266 -0.98047,-1.84375 z m 0,0"
     fill-opacity="1"
     fill-rule="nonzero"
     id="path191" />
  <path
     fill="#000000"
     d="m 102.21874,310.83594 c -0.125,-0.73828 -0.85937,-1.22657 -1.59765,-1.10547 -0.738275,0.125 -1.226555,0.85937 -1.105465,1.59765 3.316405,17.32422 9.089845,34.03125 17.078115,49.88282 0.2461,0.48828 0.73829,0.73437 1.22657,0.73437 0.125,0 0.49218,-0.12109 0.61718,-0.12109 0.61329,-0.3711 0.85938,-1.23047 0.61329,-1.84375 -7.86329,-15.60156 -13.51562,-32.1875 -16.83204,-49.14453 z m 0,0"
     fill-opacity="1"
     fill-rule="nonzero"
     id="path193" />
  <path
     fill="#000000"
     d="m 186.2539,438.98047 c 0.24609,0.12109 0.49219,0.12109 0.73828,0.12109 0.49219,0 0.85938,-0.12109 1.22656,-0.61328 0.3711,-0.61328 0.125,-1.47266 -0.36718,-1.96484 -11.42578,-7.3711 -22.11328,-16.09766 -31.82032,-25.55469 l -1.96484,1.96484 c 9.82813,9.82813 20.51563,18.42969 32.1875,26.04688 z m 0,0"
     fill-opacity="1"
     fill-rule="nonzero"
     id="path195" />
  <path
     fill="#000000"
     d="m 286.01562,467.48437 c -17.44531,-0.61718 -34.76953,-3.5625 -51.23047,-8.72265 -0.73827,-0.125 -1.47656,0.12109 -1.71875,0.85937 -0.125,0.73438 0.12109,1.47266 0.85938,1.71875 16.70703,5.28516 34.27734,8.23047 51.96876,8.96875 0,0 0,0 0.12108,0 0.73828,0 1.35156,-0.49218 1.35156,-1.22656 0,-0.98437 -0.61327,-1.59766 -1.35156,-1.59766 z m 0,0"
     fill-opacity="1"
     fill-rule="nonzero"
     id="path197" />
  <path
     fill="#000000"
     d="m 148.16796,402.85937 c -0.49218,-0.49218 -1.35156,-0.61328 -1.96484,-0.125 -0.49219,0.49219 -0.61328,1.35157 -0.125,1.96875 2.58203,2.82422 5.16016,5.52735 7.86328,8.23047 l 1.96875,-1.96484 c -2.58203,-2.58203 -5.16016,-5.28516 -7.74219,-8.10938 z m 0,0"
     fill-opacity="1"
     fill-rule="nonzero"
     id="path199" />
  <path
     fill="#000000"
     d="m 386.14843,443.89453 c -15.35937,8.35547 -31.57422,14.62109 -48.53125,18.55078 -0.73437,0.125 -1.22656,0.85938 -0.98047,1.59766 0.1211,0.61328 0.73438,1.10547 1.35157,1.10547 0.12109,0 0.12109,0 0.24609,0 17.07422,-4.05469 33.66406,-10.44141 49.14453,-18.79688 0.61328,-0.36719 0.85938,-1.23047 0.48828,-1.84375 -0.12109,-0.73828 -0.98047,-0.98047 -1.71875,-0.61328 z m 0,0"
     fill-opacity="1"
     fill-rule="nonzero"
     id="path201" />
  <path
     fill="#000000"
     d="m 131.33593,160.33203 c -0.49219,0.61328 -0.24609,1.47656 0.36719,1.96484 0.24609,0.125 0.49219,0.2461 0.86328,0.2461 0.48828,0 0.85938,-0.1211 1.10547,-0.49219 6.51172,-9.33594 13.88281,-18.05859 21.99219,-26.16797 l -1.96875,-1.96484 c -8.35157,8.10937 -15.72266,16.95312 -22.35938,26.41406 z m 0,0"
     fill-opacity="1"
     fill-rule="nonzero"
     id="path203" />
  <path
     fill="#000000"
     d="m 212.05468,96.19922 c 0.125,0 0.3711,0 0.49219,-0.1211 15.84766,-7.25 32.55859,-12.16406 49.75781,-14.99218 0.73828,-0.1211 1.23048,-0.85938 1.10548,-1.59375 -0.12109,-0.73828 -0.85937,-1.23047 -1.59766,-1.10547 -17.44532,2.69922 -34.39844,7.85937 -50.4961,15.10937 -0.73437,0.2461 -0.98047,1.10547 -0.61327,1.84375 0.37108,0.49219 0.98437,0.85938 1.35155,0.85938 z m 0,0"
     fill-opacity="1"
     fill-rule="nonzero"
     id="path205" />
  <path
     fill="#000000"
     d="m 168.92968,121.75391 c -0.48828,-0.49219 -1.35156,-0.61329 -1.96484,-0.1211 -4.66797,3.92969 -9.08985,7.98438 -13.39063,12.28516 l 1.96486,1.96484 c 4.17968,-4.17578 8.60156,-8.23047 13.26952,-12.16406 0.49219,-0.61328 0.49219,-1.35156 0.12109,-1.96484 z m 0,0"
     fill-opacity="1"
     fill-rule="nonzero"
     id="path207" />
  <path
     fill="#000000"
     d="m 293.39062,448.31641 v 2.70312 c 48.89844,0 93.25,-19.90234 125.31642,-51.96875 l -1.96485,-1.96484 c -31.69922,31.57422 -75.3164,51.23047 -123.35157,51.23047 z m 0,0"
     fill-opacity="1"
     fill-rule="nonzero"
     id="path209" />
  <path
     fill="#000000"
     d="m 293.39062,99.02344 v -2.69922 c -48.89844,0 -93.25391,19.90234 -125.32031,51.96875 l 1.96875,1.96484 c 31.57422,-31.57422 75.1875,-51.23437 123.35156,-51.23437 z m 0,0"
     fill-opacity="1"
     fill-rule="nonzero"
     id="path211" />
  <path
     fill="#000000"
     d="m 416.74218,150.25781 1.96485,-1.96484 C 386.64062,116.22656 342.28906,96.32422 293.39062,96.32422 v 2.69922 c 48.03517,0 91.65234,19.66015 123.35156,51.23437 z m 0,0"
     fill-opacity="1"
     fill-rule="nonzero"
     id="path213" />
  <path
     fill="#000000"
     d="m 467.85157,273.60937 h 2.70312 c 0,-48.89843 -19.90625,-93.25 -51.97265,-125.3164 l -1.96485,1.96484 c 31.69922,31.57422 51.23438,75.3125 51.23438,123.35156 z m 0,0"
     fill-opacity="1"
     fill-rule="nonzero"
     id="path215" />
  <path
     fill="#000000"
     d="m 170.03906,150.25781 -1.96875,-1.96484 c -32.06641,32.0664 -51.96875,76.41797 -51.96875,125.3164 h 2.70312 c 0,-48.03906 19.53516,-91.77734 51.23438,-123.35156 z m 0,0"
     fill-opacity="1"
     fill-rule="nonzero"
     id="path217" />
  <path
     fill="#000000"
     d="m 293.39062,448.31641 c -48.16406,0 -91.77734,-19.53516 -123.35156,-51.23047 l -1.96875,1.96484 c 32.0664,32.06641 76.42187,51.96875 125.32031,51.96875 z m 0,0"
     fill-opacity="1"
     fill-rule="nonzero"
     id="path219" />
  <path
     fill="#000000"
     d="m 118.80468,273.60937 h -2.70312 c 0,48.89844 19.90234,93.25 51.96875,125.31641 l 1.96875,-1.96484 C 138.33984,365.50781 118.80468,321.76953 118.80468,273.60937 Z m 0,0"
     fill-opacity="1"
     fill-rule="nonzero"
     id="path221" />
  <path
     fill="#000000"
     d="m 416.74218,397.08594 1.96485,1.96484 c 32.0664,-32.06641 51.96875,-76.41797 51.96875,-125.31641 h -2.70313 c -0.12109,48.03516 -19.65625,91.77344 -51.23047,123.35157 z m 0,0"
     fill-opacity="1"
     fill-rule="nonzero"
     id="path223" />
  <path
     fill="#000000"
     d="m 444.875,317.34766 c 0.125,-0.73829 -0.12109,-1.47266 -0.85938,-1.71875 -0.73828,-0.125 -1.47266,0.12109 -1.71875,0.85937 -1.84375,6.26563 -4.05469,12.41016 -6.63671,18.30469 l 2.58203,1.10547 c 2.45703,-6.01953 4.78906,-12.16016 6.63281,-18.55078 z m 0,0"
     fill-opacity="1"
     fill-rule="nonzero"
     id="path225" />
  <path
     fill="#000000"
     d="m 404.69921,380.98828 c -3.92967,4.05469 -8.23046,7.98828 -12.53125,11.55078 -5.28125,4.42188 -10.93359,8.35547 -16.70703,12.03906 -0.61718,0.3711 -0.86327,1.23047 -0.49218,1.96485 0.36718,0.49219 1.10546,0.86328 1.59766,0.49219 0.12109,0 0.12109,-0.1211 0.12109,-0.1211 5.89844,-3.6875 11.55079,-7.74219 16.95704,-12.16406 4.42187,-3.6875 8.72265,-7.61719 12.89842,-11.79297 0.4922,-0.49219 0.4922,-1.35156 0,-1.96875 -0.49217,-0.48828 -1.35155,-0.48828 -1.84375,0 z m 0,0"
     fill-opacity="1"
     fill-rule="nonzero"
     id="path227" />
  <path
     fill="#000000"
     d="m 213.40624,137.48047 c -0.61328,0.36719 -0.85937,1.23047 -0.49218,1.96484 0.37109,0.49219 1.10547,0.85938 1.59765,0.49219 0.125,0 0.125,-0.12109 0.125,-0.12109 7,-4.05469 14.25,-7.74219 21.86719,-10.69141 l -0.98047,-2.57813 c -7.61719,3.19532 -15.11328,6.75782 -22.11719,10.9336 z m 0,0"
     fill-opacity="1"
     fill-rule="nonzero"
     id="path229" />
  <path
     fill="#000000"
     d="m 250.01953,123.10547 c -0.125,-0.73828 -0.98438,-1.10547 -1.71875,-0.85938 -4.30079,1.22657 -8.60157,2.82422 -12.77735,4.42188 l 0.98047,2.58203 c 4.05469,-1.59766 8.23048,-3.07422 12.53125,-4.42578 0.85938,-0.24219 1.35156,-0.98047 0.98438,-1.71875 z m 0,0"
     fill-opacity="1"
     fill-rule="nonzero"
     id="path231" />
  <path
     fill="#000000"
     d="m 433.32812,206.40625 c 0.24609,0.61328 1.10547,0.85937 1.71875,0.61328 h 0.12109 c 0.6172,-0.36719 0.98438,-1.23047 0.6172,-1.84375 -5.40625,-11.42578 -12.41016,-22.35937 -20.64062,-32.1875 -0.4922,-0.49219 -1.35158,-0.61719 -1.96875,-0.125 -0.61329,0.49219 -0.61329,1.35156 -0.1211,1.96875 8.10938,9.58203 14.86719,20.26953 20.27343,31.57422 z m 0,0"
     fill-opacity="1"
     fill-rule="nonzero"
     id="path233" />
  <path
     fill="#000000"
     d="m 286.26171,118.4375 c 12.53125,-0.49219 25.1875,0.36719 37.59766,2.82422 0.24609,0.125 0.49219,0 0.73438,-0.1211 0.49218,-0.125 0.73829,-0.49218 0.86329,-0.98437 0.12108,-0.73438 -0.37111,-1.47266 -1.10548,-1.59766 -12.53516,-2.45703 -25.4336,-3.4375 -38.21094,-2.82422 -0.73828,0 -1.35156,0.61329 -1.23047,1.47266 0,0.73828 0.61719,1.35156 1.35156,1.23047 z m 0,0"
     fill-opacity="1"
     fill-rule="nonzero"
     id="path235" />
  <path
     fill="#000000"
     d="m 359.48829,132.93359 c 11.42577,5.40625 21.99217,12.04297 31.8203,20.02735 0.3672,0.36718 0.85937,0.36718 1.35156,0.12109 0.12109,-0.12109 0.36719,-0.12109 0.49219,-0.36719 0.4922,-0.49218 0.3672,-1.47265 -0.125,-1.96484 -9.94922,-8.10938 -20.76172,-14.98828 -32.4336,-20.39453 -0.73828,-0.3711 -1.47656,0 -1.84375,0.61328 -0.24609,0.85937 0,1.71875 0.7383,1.96484 z m 0,0"
     fill-opacity="1"
     fill-rule="nonzero"
     id="path237" />
  <path
     fill="#000000"
     d="m 449.54296,280.85937 c 0.125,0 0.3711,0 0.4922,-0.125 0.49219,-0.12109 0.85938,-0.61328 0.85938,-1.22656 0.49217,-12.77734 -0.48829,-25.55469 -3.07033,-38.21094 -0.12109,-0.73828 -0.85937,-1.22656 -1.59765,-1.10546 -0.73828,0.125 -1.22657,0.85937 -1.10547,1.59765 2.58203,12.28516 3.5625,24.81641 2.94922,37.47266 0.24609,0.98437 0.73828,1.59765 1.47265,1.59765 z m 0,0"
     fill-opacity="1"
     fill-rule="nonzero"
     id="path239" />
  <path
     fill="#000000"
     d="m 183.05859,160.82422 c -9.08985,8.96875 -17.07422,19.04297 -23.83202,29.97656 -0.37111,0.61719 -0.125,1.47656 0.49218,1.96875 0.36719,0.24219 0.85938,0.24219 1.22657,0.12109 0.24608,-0.12109 0.49218,-0.24609 0.61327,-0.49218 6.51173,-10.6875 14.375,-20.64063 23.46875,-29.48438 0.49219,-0.49219 0.49219,-1.35156 0,-1.96875 -0.49219,-0.61328 -1.47656,-0.61328 -1.96875,-0.12109 z m 0,0"
     fill-opacity="1"
     fill-rule="nonzero"
     id="path241" />
  <path
     fill="#000000"
     d="m 266.35937,428.41406 c 0.24609,0 0.49219,0 0.73828,-0.125 0.49219,-0.12109 0.73828,-0.48828 0.85938,-0.98047 0.12109,-0.73828 -0.36719,-1.47656 -1.10547,-1.59765 -12.16407,-2.08985 -23.95703,-5.65235 -35.13672,-10.56641 l -1.10938,2.58203 c 11.30469,4.91406 23.34375,8.47656 35.75391,10.6875 z m 0,0"
     fill-opacity="1"
     fill-rule="nonzero"
     id="path243" />
  <path
     fill="#000000"
     d="m 427.42968,351.13281 c -0.36719,0.61719 -0.125,1.47656 0.49219,1.96875 0.3672,0.1211 0.85938,0.2461 1.22656,0.1211 0.2461,-0.1211 0.49219,-0.2461 0.61719,-0.49219 3.07031,-5.28125 5.89454,-10.8086 8.35156,-16.46094 l -2.57812,-1.10547 c -2.33594,5.28125 -5.03907,10.8086 -8.10938,15.96875 z m 0,0"
     fill-opacity="1"
     fill-rule="nonzero"
     id="path245" />
  <path
     fill="#000000"
     d="m 341.30468,420.42578 c -11.91797,3.8125 -24.32812,6.26953 -36.85937,7.12891 -0.73438,0.12109 -1.22656,0.73437 -1.22656,1.47265 0.12109,0.73828 0.73437,1.35157 1.47266,1.23047 12.77734,-0.86328 25.43359,-3.32031 37.59766,-7.25 h 0.12109 c 0.61327,-0.24609 0.98438,-0.98437 0.85938,-1.71875 -0.4922,-0.61719 -1.22658,-0.98437 -1.96486,-0.86328 z m 0,0"
     fill-opacity="1"
     fill-rule="nonzero"
     id="path247" />
  <path
     fill="#000000"
     d="m 417.23046,151.24219 c -0.36717,0 -0.73437,-0.125 -0.98046,-0.3711 -0.49218,-0.48828 -0.49218,-1.35156 0,-1.96484 l 83.54296,-83.54297 c 0.4922,-0.49219 1.35158,-0.49219 1.96875,0 0.48829,0.48828 0.48829,1.35156 0,1.96484 L 418.21484,150.75 c -0.36719,0.24609 -0.61328,0.49219 -0.98438,0.49219 z m 0,0"
     fill-opacity="1"
     fill-rule="nonzero"
     id="path249" />
  <path
     fill="#000000"
     d="m 500.77734,481.98047 c -0.125,0 -0.49219,-0.1211 -0.61328,-0.2461 l -83.91407,-80.35156 c -0.37109,-0.36719 -0.37109,-0.85937 0,-1.22656 0.36719,-0.36719 0.85938,-0.36719 1.22657,0 l 83.91406,80.35156 c 0.37109,0.36719 0.37109,0.85938 0,1.22656 -0.12108,0.125 -0.36719,0.2461 -0.61328,0.2461 z m 0,0"
     fill-opacity="1"
     fill-rule="nonzero"
     id="path251" />
  <g
     clip-path="url(#afe1cc6b76)"
     id="g255"
     transform="translate(-131.26563,-121.5)">
    <path
       fill="#000000"
       d="m 424.16406,539.10156 h 0.85938 V 688.5 h -0.85938 z m 0,0"
       fill-opacity="1"
       fill-rule="nonzero"
       id="path253" />
  </g>
  <path
     fill="#000000"
     d="M -5e-6,273.11719 H 117.82031 v 0.85937 H -5e-6 Z m 0,0"
     fill-opacity="1"
     fill-rule="nonzero"
     id="path257" />
</svg>
