<?xml version="1.0" encoding="UTF-8" standalone="no"?>
<svg
   width="389.39584"
   zoomAndPan="magnify"
   viewBox="0 0 292.04688 433.5"
   height="578"
   preserveAspectRatio="xMidYMid meet"
   version="1.0"
   id="svg11"
   sodipodi:docname="155d15e8222d2d4b5f040d6a037c092f.svg"
   xmlns:inkscape="http://www.inkscape.org/namespaces/inkscape"
   xmlns:sodipodi="http://sodipodi.sourceforge.net/DTD/sodipodi-0.dtd"
   xmlns="http://www.w3.org/2000/svg"
   xmlns:svg="http://www.w3.org/2000/svg">
  <sodipodi:namedview
     id="namedview13"
     pagecolor="#ffffff"
     bordercolor="#666666"
     borderopacity="1.0"
     inkscape:pageshadow="2"
     inkscape:pageopacity="0.0"
     inkscape:pagecheckerboard="0" />
  <defs
     id="defs5">
    <clipPath
       id="206567d055">
      <path
         d="m 258,213.21875 h 293 v 433.5 H 258 Z m 0,0"
         clip-rule="nonzero"
         id="path2" />
    </clipPath>
  </defs>
  <g
     clip-path="url(#206567d055)"
     id="g9"
     transform="translate(-258.82031,-213.21875)">
    <path
       fill="#000000"
       d="m 404.84375,213.21875 c -80.57813,0 -146.02344,64.67969 -146.02344,144.42969 0,19.92187 4.09375,38.94922 11.48438,56.23437 7.38672,17.28906 18.09375,32.83203 31.29687,45.91016 6.61328,6.51562 13.83985,12.4414 21.62891,17.64062 6.96484,4.65625 22.07422,16.57813 22.07422,41.39063 v 28.45703 c 0,0.0937 0,0.21484 0,0.33203 v 15.37891 c 0,0.14062 0,0.28515 0.0234,0.42578 v 0.0234 c 0.0234,0.11718 0.0234,0.25781 0.0469,0.375 0,0.0234 0,0.0469 0,0.0937 0.0234,0.0937 0.0703,0.1875 0.0937,0.28125 0.0234,0.0469 0.0234,0.11718 0.0469,0.16796 0.0469,0.0937 0.0703,0.1875 0.11719,0.28125 0,0.0469 0.0234,0.0937 0.0469,0.14063 0.0469,0.0937 0.0937,0.21094 0.14062,0.32812 0.0234,0.0234 0.0469,0.0469 0.0469,0.0703 0.0703,0.0937 0.11718,0.16406 0.16406,0.25781 0.0508,0.0508 0.0742,0.12109 0.12109,0.16797 0.0469,0.0703 0.0703,0.11719 0.11719,0.16406 0.0469,0.0703 0.0937,0.14063 0.16406,0.21094 0.0469,0.0703 0.0937,0.11719 0.14063,0.16406 0.0469,0.0703 0.0937,0.11719 0.16406,0.1875 0.0469,0.0234 0.0937,0.0703 0.14063,0.11719 0.0703,0.0469 0.14062,0.11719 0.21484,0.16797 0.0469,0.0234 0.0703,0.0469 0.11719,0.0937 0.0937,0.0469 0.16406,0.11718 0.25781,0.16406 0.0469,0 0.0703,0.0234 0.11719,0.0234 0.0703,0.0703 0.16406,0.11718 0.28125,0.1875 0.0234,0 0.0703,0.0234 0.11718,0.0234 0.0977,0.0469 0.21485,0.0937 0.3086,0.11719 0.0469,0.0234 0.0703,0.0234 0.11719,0.0469 0.0937,0.0234 0.21093,0.0469 0.30468,0.0703 0.0469,0 0.0703,0.0234 0.11719,0.0234 0.0937,0.0234 0.21484,0.0469 0.33203,0.0937 0.0234,0 0.0703,0 0.0937,0 0.14063,0.0234 0.25781,0.0234 0.375,0.0469 0.0703,0 0.14063,0 0.21094,0 H 457.8398 c 0.0234,0 0.0234,0 0.0469,0 0.0937,0 0.21094,0 0.32812,-0.0234 0.0234,0 0.0703,0 0.1211,0 0.11718,-0.0234 0.21093,-0.0234 0.32812,-0.0469 0.0469,0 0.0703,0 0.11719,-0.0234 0.11719,-0.0234 0.23437,-0.0469 0.35156,-0.0703 0.0234,0 0.0469,-0.0234 0.0703,-0.0234 0.0977,-0.0234 0.19141,-0.0703 0.28516,-0.11719 0.0703,0 0.11719,-0.0234 0.16406,-0.0234 0.0937,-0.0469 0.16407,-0.0937 0.25782,-0.14063 0.0469,-0.0234 0.0937,-0.0469 0.14062,-0.0703 0.0937,-0.0469 0.16406,-0.0703 0.23828,-0.11719 0.0469,-0.0234 0.11719,-0.0703 0.16406,-0.0937 0.0703,-0.0469 0.14063,-0.11719 0.21094,-0.16797 0.0469,-0.0469 0.0937,-0.0703 0.14063,-0.11718 0.0703,-0.0703 0.11718,-0.11719 0.1875,-0.16407 0.0469,-0.0703 0.0937,-0.11718 0.16406,-0.1875 0.0469,-0.0234 0.0742,-0.0703 0.12109,-0.11718 0.0703,-0.0703 0.11719,-0.14063 0.1875,-0.21094 0.0234,-0.0234 0.0234,-0.0469 0.0469,-0.0703 0.0703,-0.0937 0.14062,-0.1875 0.1875,-0.3086 0.0234,-0.0234 0.0469,-0.0469 0.0469,-0.0703 0.0703,-0.0937 0.11719,-0.1875 0.16407,-0.28125 0.0234,-0.0469 0.0234,-0.0937 0.0469,-0.14063 0.0469,-0.0703 0.0703,-0.16406 0.0937,-0.23437 0.0234,-0.0703 0.0469,-0.11719 0.0703,-0.16406 0.0234,-0.0937 0.0508,-0.21485 0.0742,-0.3086 0.0234,-0.0234 0.0234,-0.0703 0.0469,-0.11718 0.0234,-0.0937 0.0469,-0.21094 0.0703,-0.32813 0,-0.0234 0,-0.0469 0,-0.0937 0,-0.11719 0.0234,-0.23437 0.0234,-0.35156 0,-0.0703 0,-0.14453 0,-0.21485 v -44.14453 c 0,-0.30468 -0.0234,-0.60937 -0.0937,-0.89062 0.42187,-23.96875 17.01172,-35.67969 24.21484,-40.5 7.78906,-5.19922 15.01172,-11.10156 21.60156,-17.64063 13.22657,-13.07812 23.91016,-28.62109 31.32422,-45.91015 7.39063,-17.28516 11.48438,-36.3125 11.48438,-56.23047 0,-79.75391 -65.46875,-144.42969 -146.02344,-144.42969 z m 0,9.03125 c 75.73047,0 136.96484,60.58594 136.96484,135.39844 0,18.69922 -3.8125,36.48047 -10.75781,52.68359 -6.91797,16.17969 -16.94141,30.78516 -29.34375,43.03906 -6.19141,6.14063 -12.96875,11.66797 -20.26172,16.53516 -7.74219,5.17187 -28.26562,20.13281 -28.26562,48.91797 0,0.30469 0.0469,0.63672 0.11718,0.9414 v 23.3086 H 408.32422 V 401.34766 c 0,-0.0937 0,-0.16407 0,-0.25782 h 8.82812 v 62.67578 c -0.0976,2.80079 2.375,5.01172 5.15235,4.60938 0.28125,0.0508 0.58984,0.0977 0.87109,0.0977 h 13.15625 c 1.71484,4.04296 5.69531,6.96093 10.35156,6.96093 6.26172,0 11.29688,-5.26953 11.29688,-11.5 0,-6.21093 -5.03516,-11.45703 -11.29688,-11.45703 -4.65625,0 -8.63672,2.89453 -10.375,6.96485 H 426.1875 v -58.375 c 0,-0.35157 -0.0469,-0.6836 -0.11719,-1.01172 2.39844,-0.80078 4.61328,-1.97657 6.54297,-3.50391 l 9.64844,8.82031 0.0703,0.0469 c -0.0469,0.21094 -0.0469,0.44531 -0.0469,0.67969 l -0.0937,8.96093 -0.0937,7.0586 c -3.95704,1.80859 -6.6836,5.85547 -6.6836,10.46484 0,6.20703 5.03516,11.47656 11.29297,11.47656 6.26172,0 11.29688,-5.26953 11.29688,-11.47656 0,-4.65625 -2.82422,-8.77344 -6.8711,-10.53906 l 0.0937,-6.89063 0.0469,-1.57422 1.08203,0.98829 10.05078,9.21875 3.83594,3.5039 c -0.84766,1.57422 -1.32032,3.38672 -1.32032,5.29297 0,6.20703 5.0625,11.47656 11.32032,11.47656 6.23828,0 11.29687,-5.26953 11.29687,-11.47656 0,-6.23437 -5.05859,-11.47656 -11.29687,-11.47656 -1.03516,0 -2,0.16406 -2.94141,0.39844 l -4.77734,-4.375 -10.04688,-9.19532 -10.07422,-9.21875 -10.04687,-9.21875 c 0.60937,-1.27343 1.08203,-2.58984 1.43359,-3.97656 h 28.92188 l 5.4375,8.44531 c -2.09375,2.08985 -3.39063,4.98438 -3.39063,8.13672 0,6.20703 5.03906,11.47656 11.29688,11.47656 6.26172,0 11.32031,-5.26953 11.32031,-11.47656 0,-5.97656 -4.68359,-11.05469 -10.58984,-11.42969 l -3.31641,-5.15234 h 11.74219 c 0.67968,0.11719 1.38672,0.0703 2.04687,-0.11719 0.73047,-0.16406 1.41016,-0.51562 1.97656,-1.01172 l 7.10547,-4.21093 c 1.85938,1.41406 4.16797,2.25781 6.6836,2.25781 6.23828,0 11.29687,-5.24219 11.29687,-11.47656 0,-6.20703 -5.05859,-11.47657 -11.29687,-11.47657 -6.25782,0 -11.31641,5.26954 -11.31641,11.47657 0,0.47265 0.0469,0.9414 0.11719,1.38672 l -6.96875,4.14062 h -19.03516 c -0.1914,-0.0234 -0.40234,-0.0469 -0.58984,-0.0469 -0.23438,0 -0.4961,0.0234 -0.73047,0.0469 H 437.1055 c -2.89453,-0.84766 -5.78906,1.31641 -5.78906,4.32813 0,6.20703 -5.08204,11.21875 -11.71875,11.21875 h -31.46485 c -6.63672,0 -11.71875,-5.01172 -11.71875,-11.21875 v -0.0234 c 0,-0.0703 0,-0.14063 0,-0.21094 0,-0.11719 -0.0234,-0.23437 -0.0234,-0.33203 0,0 0,0 0,-0.0234 -0.28125,-2.28125 -2.25781,-4.01953 -4.5664,-3.97265 -0.21094,0 -0.42188,0 -0.63281,0.0234 h -33.46485 c -0.28125,-0.0234 -0.58984,-0.0469 -0.87109,-0.0234 -0.16406,0 -0.30469,0 -0.47266,0.0234 h -19.03515 l -6.94532,-4.11718 c 0.0469,-0.46875 0.0937,-0.91797 0.0937,-1.38672 0,-6.23047 -5.03515,-11.47657 -11.29297,-11.47657 -6.26171,0 -11.29687,5.2461 -11.29687,11.47657 0,6.21093 5.03516,11.45312 11.29687,11.45312 2.49219,0 4.80079,-0.84765 6.6836,-2.25781 l 7.90625,4.70312 h 0.0234 c 0.0469,0.0469 0.0937,0.0703 0.14062,0.0937 0.0703,0.0469 0.16406,0.0977 0.23438,0.1211 0.0469,0.0234 0.0937,0.0234 0.14062,0.0469 0.0977,0.0234 0.19141,0.0703 0.28516,0.11719 0.0703,0 0.14062,0.0234 0.1875,0.0234 0.0703,0.0234 0.16406,0.0703 0.23437,0.0937 0.0937,0 0.1875,0.0234 0.28125,0.0234 0.0508,0.0234 0.1211,0.0234 0.16797,0.0469 0.11719,0 0.21094,0.0234 0.30469,0.0234 0.0469,0 0.0937,0.0234 0.14062,0.0234 0.0234,0 0.0234,0 0.0469,0 0.0469,0 0.0937,0 0.14062,0 h 12.63672 l -3.3164,5.14843 c -5.90625,0.37891 -10.58985,5.45703 -10.58985,11.4336 0,6.23047 5.0586,11.47656 11.29688,11.47656 6.25781,0 11.32031,-5.24609 11.32031,-11.47656 0,-3.15235 -1.29688,-6.04688 -3.39063,-8.14063 l 5.41407,-8.4414 h 28.42578 c 0.35547,1.5039 0.87109,2.96484 1.55469,4.32812 l -9.64844,8.86719 -10.07422,9.19531 -10.04688,9.21875 -4.77734,4.39844 c -0.94141,-0.25781 -1.92969,-0.42578 -2.94141,-0.42578 -6.26171,0 -11.29687,5.24609 -11.29687,11.48047 0,6.20703 5.03516,11.47656 11.29687,11.47656 6.25782,0 11.29688,-5.26953 11.29688,-11.47656 0,-1.90625 -0.47266,-3.69532 -1.29688,-5.29297 l 3.8125,-3.50391 10.07422,-9.21875 1.08203,-0.98828 0.0469,1.59766 0.0703,6.86718 c -4.02344,1.76563 -6.84765,5.87891 -6.84765,10.53907 0,6.20703 5.03515,11.47656 11.29687,11.47656 6.25781,0 11.29297,-5.26953 11.29297,-11.47656 0,-4.58594 -2.72656,-8.65625 -6.68359,-10.46875 l -0.0937,-7.05469 -0.0937,-8.96094 c 0,-0.23437 -0.0234,-0.46875 -0.0703,-0.67969 l 0.0703,-0.0273 9.32031,-8.53516 c 2,1.55078 4.30469,2.75 6.80078,3.50391 -0.0234,0.23437 -0.0469,0.46875 -0.0469,0.70703 v 58.37109 h -10.12109 c -1.73828,-4.04296 -5.74219,-6.96093 -10.375,-6.96093 -6.26172,0 -11.29687,5.24609 -11.29687,11.47656 0,6.21094 5.03515,11.48047 11.29687,11.48047 4.63281,0 8.63672,-2.91797 10.375,-6.96485 H 385.004 c 0.51953,0 1.01171,-0.0703 1.48437,-0.21093 2.51563,0.0234 4.5625,-2 4.5625,-4.51563 v -62.48828 h 8.33203 c 0,0.0937 0,0.16406 0,0.25781 v 141.72657 h -44.97265 v -24.15625 c 0,-0.0234 0,-0.0703 0,-0.11719 0,-28.52735 -18.00391,-43.50781 -26.07422,-48.89453 -7.29688,-4.8711 -14.07422,-10.41797 -20.28516,-16.53516 -12.37891,-12.25391 -22.42578,-26.85937 -29.34766,-43.0625 -6.91796,-16.17969 -10.7539,-33.96094 -10.7539,-52.68359 0,-74.78907 61.25781,-135.39844 136.98828,-135.39844 z m 2.44531,31.375 c -7.88281,-0.0234 -15.625,2.89453 -22.21484,7.85547 -0.11719,0.0703 -0.23438,0.1875 -0.35156,0.28125 -0.35547,-0.25781 -0.73047,-0.44531 -1.10547,-0.67969 -3.78907,-2.1875 -8.00391,-3.66797 -12.40235,-4.28125 -4.40234,-0.63281 -9.01562,-0.375 -13.57812,0.82422 -12.40235,3.29297 -21.39453,13.05078 -24.40625,24.67187 -0.0469,0.0234 -0.11719,0.0234 -0.16406,0.0469 -2.96485,0.58594 -5.8125,1.48047 -8.54297,2.63281 -5.4375,2.30469 -10.35547,5.6211 -14.44922,9.73828 -4.11719,4.08985 -7.46094,8.98438 -9.74219,14.41407 -2.30859,5.43359 -3.57812,11.41015 -3.57812,17.66406 0,25.02344 20.40234,45.39062 45.46484,45.39062 9.50781,0 18.35937,-2.91406 25.65234,-7.92578 5.76563,5.95313 13.57813,9.9961 22.38282,10.86719 10.1875,1.01172 19.74218,-2.44531 26.82812,-8.77344 3.01172,2.89453 6.89453,5.08203 11.33984,6.1875 10.3086,2.53906 21.01563,-1.36719 26.59375,-9.33984 6.42579,6.58594 16.33204,9.55078 25.98047,6.96094 0.0937,-0.0234 0.1875,-0.0469 0.28125,-0.0937 0.0469,0 0.1211,-0.0234 0.19141,-0.0234 0.0703,-0.0234 0.14062,-0.0703 0.21094,-0.0937 4.39843,-1.36328 8.47265,-3.55078 12,-6.39453 7.29687,-5.85938 12.35547,-14.51172 13.4375,-24.50782 1.55468,-14.18359 -5.33985,-27.39843 -16.63672,-34.64453 -0.23438,-24.8125 -20.54297,-44.92187 -45.46485,-44.92187 -5.64843,0 -11.08593,1.03515 -16.09765,2.9414 -3.83594,-3.66796 -8.47266,-6.375 -13.74219,-7.78515 -2.63672,-0.67969 -5.27344,-1.01172 -7.88672,-1.03516 z m -0.0937,9.03125 c 1.90625,0 3.78906,0.23437 5.64844,0.73047 7.4375,1.97656 13.22656,7.57422 16.61328,15.59375 0.94141,2.32812 3.625,3.41015 5.95703,2.44531 2.30469,-0.98828 3.38672,-3.66797 2.375,-5.97266 -0.82422,-1.92968 -1.76562,-3.76562 -2.84765,-5.5039 3.19921,-0.91797 6.5664,-1.4375 10.07421,-1.4375 18.56641,0 33.79297,13.76172 36.1211,31.63281 -2.07031,-0.60937 -4.23438,-1.05469 -6.44531,-1.29297 -10.00391,-1.08203 -19.58204,1.97656 -26.85157,7.83203 -2.0039,1.55469 -2.35547,4.42188 -0.77734,6.39844 1.59766,1.97656 4.49219,2.25781 6.42187,0.63281 5.50782,-4.39453 12.64063,-6.72265 20.24219,-5.90234 15.17578,1.64844 26.05078,15.14844 24.40235,30.26953 -0.82422,7.57422 -4.61329,14.04297 -10.1211,18.4375 -2.72656,2.21094 -5.88281,3.88281 -9.29297,4.91797 -9.55468,2.5625 -18.82812,-2.63672 -21.15625,-11.5 -2.33203,-8.86719 3.29297,-18.27734 12.84766,-20.91016 5.22656,-1.3164 4.1875,-8.98437 -1.17578,-8.89062 -0.42578,0 -0.82422,0.0703 -1.19922,0.1875 -14.09766,3.85937 -22.82813,18.08594 -19.22656,31.89453 0.1875,0.65625 0.375,1.31641 0.60937,1.94922 -0.0234,0.0703 -0.0469,0.16406 -0.0703,0.23828 -2.02344,6.9375 -10.33203,11.45312 -18.75391,9.38281 -3.10937,-0.77734 -5.67187,-2.30469 -7.57812,-4.25781 3.22265,-4.86719 5.29297,-10.60547 5.8125,-16.86328 0.25781,-2.72656 -1.95313,-5.05469 -4.6836,-4.9375 -2.30859,0.0703 -4.1875,1.90234 -4.35546,4.20703 -1.17579,14.96094 -13.90625,25.68359 -28.64063,24.22656 -6.375,-0.63672 -12.04687,-3.45703 -16.33203,-7.71484 3.0625,-3.12891 5.67187,-6.70313 7.72266,-10.62891 0.67968,0.49219 1.33984,1.01172 1.95312,1.59766 1.78516,1.76562 4.67969,1.74219 6.44531,-0.0703 1.74219,-1.78907 1.67188,-4.67969 -0.14062,-6.42188 -5.10547,-4.9375 -11.85938,-7.40625 -18.61328,-7.5 -2.51953,-0.0469 -4.58985,1.94922 -4.63672,4.46875 -0.0234,2.51563 2,4.5625 4.51953,4.5625 0.63281,0.0234 1.29297,0.0469 1.92969,0.14063 -1.625,2.89062 -3.64844,5.55078 -6.00391,7.90234 -6.58984,6.58594 -15.67187,10.65234 -25.76953,10.65234 -20.19141,0 -36.45313,-16.22656 -36.45313,-36.35937 0,-5.03125 1.03907,-9.78516 2.8711,-14.13281 1.83594,-4.35157 4.51953,-8.28125 7.8164,-11.55079 3.29297,-3.29296 7.22266,-5.97265 11.57813,-7.80859 1.33984,-0.5625 2.73047,-1.03516 4.14062,-1.45703 0.0937,2.5625 0.44532,5.12891 1.12891,7.69141 2.42578,9.125 8.33203,16.4375 15.91016,20.83593 3.78906,2.21094 8,3.67188 12.40234,4.30469 2.51563,0.40234 4.87109,-1.31641 5.22266,-3.83203 0.35547,-2.51563 -1.4336,-4.82031 -3.95313,-5.12891 -3.24609,-0.44531 -6.35547,-1.52734 -9.1289,-3.15234 -0.75391,-0.44531 -1.46094,-0.91406 -2.16797,-1.41016 2.11718,-0.32812 4.1914,-0.98828 6.09765,-2.07031 7.41016,-3.90234 11.41016,-12.41797 9.33985,-20.50781 -0.8711,-3.83203 -3.08203,-7.125 -6.02344,-9.42969 -0.82422,-0.68359 -1.85938,-1.03516 -2.94141,-1.03516 -4.28125,0.0703 -6.07031,5.50391 -2.68359,8.11329 1.46094,1.1289 2.49609,2.70703 2.87109,4.42187 v 0.0703 l 0.0234,0.0937 c 0.94141,3.55078 -1.29297,8.49219 -4.82422,10.32422 l -0.0703,0.0469 -0.0703,0.0234 c -3.29297,1.85938 -7.95313,1.19922 -10.35547,-1.19921 -0.35156,-0.89063 -0.65625,-1.8086 -0.91797,-2.77344 -3.57422,-13.5 4.40234,-27.25781 17.91016,-30.85547 3.38671,-0.91797 6.7539,-1.08203 10,-0.61328 3.25,0.44531 6.33203,1.52734 9.13281,3.15234 2.80078,1.6211 5.26953,3.76172 7.26953,6.34766 1.01562,1.29687 1.88281,2.70703 2.63672,4.21094 1.10547,2.23437 3.83594,3.15234 6.07422,2.02343 2.23437,-1.10547 3.15234,-3.80859 2.02343,-6.04297 -1.01171,-2.04687 -2.21484,-3.95312 -3.57812,-5.71484 -0.54297,-0.68359 -1.10547,-1.34375 -1.67188,-1.97656 4.89454,-3.33985 10.14454,-5.12891 15.36719,-5.10547 z m 0.35547,18.98047 c -4.73047,-0.16406 -6.49609,6.14062 -2.35547,8.46875 7.32031,4.20703 12.1211,10.37109 13.29688,17.42578 1.17578,7.05469 -1.38672,13.89844 -6.94141,19.61328 -1.8125,1.76563 -1.8125,4.68359 0,6.44531 1.8125,1.76563 4.73047,1.69532 6.46875,-0.16406 3.64844,-3.71484 6.42578,-8.11328 8.07422,-12.83984 5.15234,2.79687 11.01172,3.73828 16.63672,3.00781 2.51953,-0.28125 4.30859,-2.58594 3.97656,-5.07813 -0.32812,-2.51562 -2.63281,-4.25781 -5.15234,-3.88281 -4.58985,0.58985 -9.27344,-0.44531 -13.01563,-3.14844 -0.23437,-0.16796 -0.49219,-0.33203 -0.77344,-0.44921 0,-1.64454 -0.0937,-3.31641 -0.3789,-4.98438 -1.66797,-10.16016 -8.51953,-18.48828 -17.69531,-23.77734 -0.63672,-0.37891 -1.39063,-0.58985 -2.14063,-0.63672 z m -29.23047,16.32422 c -2.32812,0 -4.28125,1.73828 -4.51953,4.04297 -0.87109,7.59765 1.03516,15.6875 5.8125,22.64843 4.80078,6.9375 11.65234,11.57032 19.01563,13.3125 2.44921,0.58594 4.89453,-0.91797 5.48437,-3.33984 0.56641,-2.44531 -0.94141,-4.89063 -3.39062,-5.45703 -5.10547,-1.19922 -10.09375,-4.46875 -13.64844,-9.64063 0,0 0,0 0,-0.0234 6.66015,-2.96485 11.86328,-8.21094 14.96875,-14.46485 1.57422,-3.10547 -0.80078,-6.75 -4.28516,-6.5625 -1.64453,0.0937 -3.10547,1.0586 -3.8125,2.5625 -2.23437,4.46875 -5.92969,8.16016 -10.58984,10.23047 -0.67969,-2.77344 -0.8711,-5.57422 -0.5625,-8.23047 0.35156,-2.67969 -1.74219,-5.07812 -4.47266,-5.07812 z m -50.85547,11.82812 c -1.17578,-0.0234 -2.30468,0.39844 -3.17578,1.17578 -9.95703,8.77344 -10.92187,24.10547 -2.16406,34.10157 8.75391,9.99609 24.07422,11.03125 34.02734,2.25781 1.90625,-1.64453 2.09375,-4.51563 0.42188,-6.39453 -1.64453,-1.88282 -4.51563,-2.04688 -6.39844,-0.37891 -6.28516,5.52734 -15.69922,4.91797 -21.25,-1.41016 -5.53125,-6.35156 -4.94531,-15.875 1.33984,-21.40234 3.12891,-2.67969 1.31641,-7.80859 -2.80078,-7.94922 z m -28.33203,58.5625 c 1.2461,0 2.25781,0.96485 2.25781,2.44531 0,1.45704 -1.01171,2.44532 -2.25781,2.44532 -1.22656,0 -2.26172,-0.98828 -2.26172,-2.44532 0,-1.48046 1.03516,-2.44531 2.26172,-2.44531 z m 209.84375,0.16406 c 1.22656,0 2.26172,0.98829 2.26172,2.44532 0,1.45703 -1.03516,2.44531 -2.26172,2.44531 -1.24609,0 -2.25781,-0.98828 -2.25781,-2.44531 0,-1.45703 1.01172,-2.44532 2.25781,-2.44532 z m -182.875,30.94922 c 1.22266,0 2.25781,0.98828 2.25781,2.44922 0,1.48047 -1.03515,2.44531 -2.25781,2.44531 -1.25,0 -2.28515,-0.96484 -2.28515,-2.44531 0,-1.46094 1.03515,-2.44922 2.28515,-2.44922 z m 155.90625,0.21485 c 1.2461,0 2.26172,0.96093 2.26172,2.44531 0,1.45703 -1.03906,2.44531 -2.26172,2.44531 -1.22265,0 -2.25781,-0.98828 -2.25781,-2.44531 0,-1.48438 1.03516,-2.44531 2.25781,-2.44531 z m -150.09375,30.28906 c 1.2461,0 2.25781,0.96484 2.25781,2.44922 0,1.45703 -1.01171,2.44531 -2.25781,2.44531 -1.22656,0 -2.26172,-0.98828 -2.26172,-2.44531 0,-1.48438 1.03516,-2.44922 2.26172,-2.44922 z m 29.51172,0 c 1.22266,0 2.25781,0.96484 2.25781,2.44922 0,1.45703 -1.03515,2.44531 -2.25781,2.44531 -1.22656,0 -2.26172,-0.98828 -2.26172,-2.44531 0,-1.48438 1.03516,-2.44922 2.26172,-2.44922 z m 85.25781,0.16797 c 1.22657,0 2.26172,0.98437 2.26172,2.44531 0,1.45703 -1.03515,2.44531 -2.26172,2.44531 -1.24609,0 -2.28125,-0.98828 -2.28125,-2.44531 0,-1.46094 1.03516,-2.44531 2.28125,-2.44531 z m 29.48828,0 c 1.2461,0 2.28125,0.98437 2.28125,2.44531 0,1.45703 -1.03515,2.44531 -2.28125,2.44531 -1.22265,0 -2.23437,-0.98828 -2.23437,-2.44531 0,-1.46094 1.01172,-2.44531 2.23437,-2.44531 z m -114.74609,31.18359 c 1.22266,0 2.25781,0.96485 2.25781,2.42188 0,1.48437 -1.03515,2.44922 -2.25781,2.44922 -1.22656,0 -2.26172,-0.96485 -2.26172,-2.44922 0,-1.45703 1.03516,-2.42188 2.26172,-2.42188 z m 85.25781,0.16406 c 1.22657,0 2.26172,0.96485 2.26172,2.44922 0,1.45703 -1.03515,2.44532 -2.26172,2.44532 -1.24609,0 -2.28125,-0.98829 -2.28125,-2.44532 0,-1.48437 1.03516,-2.44922 2.28125,-2.44922 z m -92.36718,90.6211 h 98.98046 v 6.32422 h -98.98046 z m 103.54687,21.47265 c -0.0234,0 -0.0234,0 -0.0469,0 H 349.79687 c -2.53906,-0.0703 -4.65625,1.97266 -4.65625,4.51563 0,2.5625 2.11719,4.60937 4.65625,4.51562 h 108.01954 c 2.54296,0.0703 4.63671,-1.95312 4.66015,-4.49218 0,-2.54297 -2.07031,-4.58594 -4.61328,-4.53907 z m -108.06641,15.99219 c -2.51562,-0.0234 -4.5625,2 -4.5625,4.51563 0,2.51562 2.04688,4.53906 4.5625,4.51562 h 108.01954 c 2.51953,0.0234 4.5664,-2 4.5664,-4.51562 0,-2.51563 -2.04687,-4.53907 -4.5664,-4.51563 z m 4.1211,15.82813 c -0.66016,0 -1.29688,0.16406 -1.88281,0.44531 -2.70704,1.22266 -3.53125,4.65625 -1.67188,6.96094 2.94141,6.44531 7.03516,12.27734 12.07422,17.19531 5.26953,5.17187 11.57812,9.35937 18.58984,12.25391 7.01172,2.86718 14.70703,4.46484 22.78125,4.46484 8.07032,0 15.78907,-1.59766 22.77735,-4.46484 7.01562,-2.89454 13.32031,-7.08204 18.61718,-12.25391 5.01172,-4.91797 9.10547,-10.75 12.04688,-17.19531 2.40234,-3.00782 0.21484,-7.42969 -3.62109,-7.35938 -0.0703,0 -0.1211,0 -0.19141,0 h -98.69531 c -0.28516,-0.0234 -0.54297,-0.0469 -0.82422,-0.0234 z m 7.57812,9.07812 h 84.64844 c -2.04687,3.31641 -4.49609,6.35156 -7.27344,9.05469 -4.46875,4.375 -9.8125,7.92578 -15.71875,10.37109 -5.92968,2.44532 -12.44922,3.78516 -19.34375,3.78516 -6.89843,0 -13.41406,-1.33984 -19.32031,-3.78516 -5.93359,-2.44531 -11.27344,-5.99609 -15.74609,-10.37109 -2.77735,-2.70313 -5.19922,-5.73828 -7.2461,-9.05469 z m 0,0"
       fill-opacity="1"
       fill-rule="nonzero"
       id="path7" />
  </g>
</svg>
